M48
; DRILL file {KiCad 7.0.8} date Sun Oct 26 15:42:38 2025
; FORMAT={-:-/ absolute / metric / decimal}
; #@! TF.CreationDate,2025-10-26T15:42:38+01:00
; #@! TF.GenerationSoftware,Kicad,Pcbnew,7.0.8
; #@! TF.FileFunction,Plated,1,2,PTH
FMAT,2
METRIC
; #@! TA.AperFunction,Plated,PTH,ViaDrill
T1C0.400
; #@! TA.AperFunction,Plated,PTH,ComponentDrill
T2C0.500
; #@! TA.AperFunction,Plated,PTH,ComponentDrill
T3C0.762
; #@! TA.AperFunction,Plated,PTH,ComponentDrill
T4C0.800
%
G90
G05
T1
X101.6Y-53.34
X101.6Y-60.96
X111.76Y-101.6
X111.76Y-104.14
X116.84Y-101.6
X116.84Y-104.14
X119.38Y-93.98
X129.54Y-86.36
X129.54Y-91.44
X132.08Y-76.2
X134.62Y-86.36
X134.62Y-91.44
X137.16Y-53.34
X137.16Y-58.42
X137.16Y-78.74
X144.78Y-101.6
X149.86Y-101.6
T2
X99.06Y-106.68
X104.14Y-106.68
X114.3Y-106.68
X119.38Y-106.68
X132.08Y-53.34
X132.08Y-58.42
X132.08Y-63.5
X132.08Y-68.58
X134.62Y-106.68
X139.7Y-106.68
X147.32Y-106.68
X152.4Y-106.68
T3
X98.525Y-61.005
X98.525Y-63.545
X98.525Y-66.085
X98.525Y-68.625
X98.525Y-71.165
X98.525Y-73.705
X98.525Y-76.245
X98.525Y-78.785
X98.525Y-81.325
X98.525Y-83.865
X98.525Y-86.405
X98.525Y-88.945
X98.525Y-91.485
X98.525Y-94.025
X98.525Y-96.565
X123.925Y-61.005
X123.925Y-63.545
X123.925Y-66.085
X123.925Y-68.625
X123.925Y-71.165
X123.925Y-73.705
X123.925Y-76.245
X123.925Y-78.785
X123.925Y-81.325
X123.925Y-83.865
X123.925Y-86.405
X123.925Y-88.945
X123.925Y-91.485
X123.925Y-94.025
X123.925Y-96.565
X134.582Y-79.924
X134.62Y-99.06
X141.165Y-53.34
X141.165Y-55.88
X141.165Y-58.42
X141.165Y-60.96
X141.165Y-63.5
X141.165Y-66.04
X141.165Y-68.58
X141.165Y-71.12
X149.86Y-99.06
X149.883Y-79.992
T4
X157.48Y-73.66
X157.48Y-83.82
X157.48Y-88.9
X157.48Y-99.06
T0
M30
