%TF.GenerationSoftware,KiCad,Pcbnew,7.0.8*%
%TF.CreationDate,2025-10-26T15:42:26+01:00*%
%TF.ProjectId,Gyroskopicky-ovladac,4779726f-736b-46f7-9069-636b792d6f76,rev?*%
%TF.SameCoordinates,Original*%
%TF.FileFunction,Copper,L2,Bot*%
%TF.FilePolarity,Positive*%
%FSLAX46Y46*%
G04 Gerber Fmt 4.6, Leading zero omitted, Abs format (unit mm)*
G04 Created by KiCad (PCBNEW 7.0.8) date 2025-10-26 15:42:26*
%MOMM*%
%LPD*%
G01*
G04 APERTURE LIST*
%TA.AperFunction,ComponentPad*%
%ADD10C,1.524000*%
%TD*%
%TA.AperFunction,ComponentPad*%
%ADD11C,1.600000*%
%TD*%
%TA.AperFunction,ComponentPad*%
%ADD12O,1.600000X1.600000*%
%TD*%
%TA.AperFunction,ComponentPad*%
%ADD13C,2.000000*%
%TD*%
%TA.AperFunction,ViaPad*%
%ADD14C,0.800000*%
%TD*%
%TA.AperFunction,Conductor*%
%ADD15C,0.500000*%
%TD*%
G04 APERTURE END LIST*
D10*
%TO.P,ESP32,1,3v3*%
%TO.N,VCC3V3*%
X98525000Y-61005000D03*
%TO.P,ESP32,2,GND*%
%TO.N,GND*%
X98525000Y-63545000D03*
%TO.P,ESP32,3,GPIO15*%
%TO.N,unconnected-(ESP1-GPIO15-Pad3)*%
X98525000Y-66085000D03*
%TO.P,ESP32,4,GPIO2*%
%TO.N,unconnected-(ESP1-GPIO2-Pad4)*%
X98525000Y-68625000D03*
%TO.P,ESP32,5,GPIO4*%
%TO.N,unconnected-(ESP1-GPIO4-Pad5)*%
X98525000Y-71165000D03*
%TO.P,ESP32,6,GPIO16*%
%TO.N,unconnected-(ESP1-GPIO16-Pad6)*%
X98525000Y-73705000D03*
%TO.P,ESP32,7,GPIO17*%
%TO.N,unconnected-(ESP1-GPIO17-Pad7)*%
X98525000Y-76245000D03*
%TO.P,ESP32,8,GPIO5*%
%TO.N,unconnected-(ESP1-GPIO5-Pad8)*%
X98525000Y-78785000D03*
%TO.P,ESP32,9,GPIO18*%
%TO.N,unconnected-(ESP1-GPIO18-Pad9)*%
X98525000Y-81325000D03*
%TO.P,ESP32,10,GPIO19*%
%TO.N,unconnected-(ESP1-GPIO19-Pad10)*%
X98525000Y-83865000D03*
%TO.P,ESP32,11,GPIO21*%
%TO.N,SDA*%
X98525000Y-86405000D03*
%TO.P,ESP32,12,RX0*%
%TO.N,unconnected-(ESP1-RX0-Pad12)*%
X98525000Y-88945000D03*
%TO.P,ESP32,13,TX0*%
%TO.N,unconnected-(ESP1-TX0-Pad13)*%
X98525000Y-91485000D03*
%TO.P,ESP32,14,GPIO22*%
%TO.N,SCL*%
X98525000Y-94025000D03*
%TO.P,ESP32,15,GPIO23*%
%TO.N,D23*%
X98525000Y-96565000D03*
%TO.P,ESP32,16,VN*%
%TO.N,unconnected-(ESP1-VN-Pad16)*%
X123925000Y-61005000D03*
%TO.P,ESP32,17,GND*%
%TO.N,unconnected-(ESP1-GND-Pad17)*%
X123925000Y-63545000D03*
%TO.P,ESP32,18,GPIO13*%
%TO.N,unconnected-(ESP1-GPIO13-Pad18)*%
X123925000Y-66085000D03*
%TO.P,ESP32,19,GPIO12*%
%TO.N,unconnected-(ESP1-GPIO12-Pad19)*%
X123925000Y-68625000D03*
%TO.P,ESP32,20,GPIO14*%
%TO.N,unconnected-(ESP1-GPIO14-Pad20)*%
X123925000Y-71165000D03*
%TO.P,ESP32,21,GPIO27*%
%TO.N,unconnected-(ESP1-GPIO27-Pad21)*%
X123925000Y-73705000D03*
%TO.P,ESP32,22,GPIO26*%
%TO.N,unconnected-(ESP1-GPIO26-Pad22)*%
X123925000Y-76245000D03*
%TO.P,ESP32,23,GPIO25*%
%TO.N,unconnected-(ESP1-GPIO25-Pad23)*%
X123925000Y-78785000D03*
%TO.P,ESP32,24,GPIO33*%
%TO.N,unconnected-(ESP1-GPIO33-Pad24)*%
X123925000Y-81325000D03*
%TO.P,ESP32,25,GPIO32*%
%TO.N,unconnected-(ESP1-GPIO32-Pad25)*%
X123925000Y-83865000D03*
%TO.P,ESP32,26,GPIO35*%
%TO.N,unconnected-(ESP1-GPIO35-Pad26)*%
X123925000Y-86405000D03*
%TO.P,ESP32,27,GPIO34*%
%TO.N,D34*%
X123925000Y-88945000D03*
%TO.P,ESP32,28,VN*%
%TO.N,unconnected-(ESP1-VN-Pad28)*%
X123925000Y-91485000D03*
%TO.P,ESP32,29,VP*%
%TO.N,unconnected-(ESP1-VP-Pad29)*%
X123925000Y-94025000D03*
%TO.P,ESP32,30,EN*%
%TO.N,EN*%
X123925000Y-96565000D03*
%TD*%
%TO.P,+Reboot-,1,Pin_1*%
%TO.N,GND*%
X119380000Y-106680000D03*
%TO.P,+Reboot-,2,Pin_2*%
%TO.N,EN*%
X114300000Y-106680000D03*
%TD*%
D11*
%TO.P,R1,1*%
%TO.N,D34*%
X157480000Y-83820000D03*
D12*
%TO.P,R1,2*%
%TO.N,GND*%
X157480000Y-73660000D03*
%TD*%
D10*
%TO.P,MPU6050,8,INT*%
%TO.N,unconnected-(MPU1-INT-Pad8)*%
X141165000Y-71120000D03*
%TO.P,MPU6050,7,ADD*%
%TO.N,unconnected-(MPU1-ADD-Pad7)*%
X141165000Y-68580000D03*
%TO.P,MPU6050,6,XCL*%
%TO.N,unconnected-(MPU1-XCL-Pad6)*%
X141165000Y-66040000D03*
%TO.P,MPU6050,5,XDA*%
%TO.N,unconnected-(MPU1-XDA-Pad5)*%
X141165000Y-63500000D03*
%TO.P,MPU6050,4,SDA*%
%TO.N,SDA*%
X141165000Y-60960000D03*
%TO.P,MPU6050,3,SCL*%
%TO.N,SCL*%
X141165000Y-58420000D03*
%TO.P,MPU6050,2,GND*%
%TO.N,GND*%
X141165000Y-55880000D03*
%TO.P,MPU6050,1,VCC*%
%TO.N,VCC3V3*%
X141165000Y-53340000D03*
%TD*%
D13*
%TO.P,OLED,1,Pin_1*%
%TO.N,SDA*%
X132080000Y-68580000D03*
%TO.P,OLED,2,Pin_2*%
%TO.N,SCL*%
X132080000Y-63500000D03*
%TO.P,OLED,3,Pin_3*%
%TO.N,VCC3V3*%
X132080000Y-58420000D03*
%TO.P,OLED,4,Pin_4*%
%TO.N,GND*%
X132080000Y-53340000D03*
%TD*%
D10*
%TO.P,-Battery+,1,Pin_1*%
%TO.N,GND*%
X134620000Y-106680000D03*
%TO.P,-Battery+,2,Pin_2*%
%TO.N,BTSI*%
X139700000Y-106680000D03*
%TD*%
%TO.P,+Menu-,1,Pin_1*%
%TO.N,GND*%
X104140000Y-106680000D03*
%TO.P,+Menu-,2,Pin_2*%
%TO.N,D23*%
X99060000Y-106680000D03*
%TD*%
D11*
%TO.P,R2,1*%
%TO.N,STRI*%
X157480000Y-99060000D03*
D12*
%TO.P,R2,2*%
%TO.N,D34*%
X157480000Y-88900000D03*
%TD*%
D10*
%TO.P,Regulator3V3,1,IN-*%
%TO.N,GND*%
X134620000Y-99060000D03*
%TO.P,Regulator3V3,2,IN+*%
%TO.N,STRI*%
X149860000Y-99060000D03*
%TO.P,Regulator3V3,3,OUT-*%
%TO.N,GND*%
X134581539Y-79923557D03*
%TO.P,Regulator3V3,4,OUT+*%
%TO.N,VCC3V3*%
X149883229Y-79992483D03*
%TD*%
%TO.P,+Switch+,1,Pin_1*%
%TO.N,STRI*%
X147320000Y-106680000D03*
%TO.P,+Switch+,2,Pin_2*%
%TO.N,BTSI*%
X152400000Y-106680000D03*
%TD*%
D14*
%TO.N,GND*%
X101600000Y-53340000D03*
X134620000Y-86360000D03*
X116840000Y-104140000D03*
X134620000Y-91440000D03*
X111760000Y-104140000D03*
X101600000Y-60960000D03*
%TO.N,BTSI*%
X144780000Y-101600000D03*
X149860000Y-101600000D03*
%TO.N,VCC3V3*%
X137160000Y-78740000D03*
X137160000Y-53340000D03*
X137160000Y-58420000D03*
%TO.N,SDA*%
X119380000Y-93980000D03*
X132080000Y-76200000D03*
%TO.N,SCL*%
X116840000Y-101600000D03*
X129540000Y-91440000D03*
X129540000Y-86360000D03*
X111760000Y-101600000D03*
%TD*%
D15*
%TO.N,GND*%
X134620000Y-86360000D02*
X134620000Y-91440000D01*
X111760000Y-104140000D02*
X116840000Y-104140000D01*
X101600000Y-60960000D02*
X101600000Y-53340000D01*
%TO.N,BTSI*%
X144780000Y-101600000D02*
X149860000Y-101600000D01*
%TO.N,VCC3V3*%
X137160000Y-78740000D02*
X137160000Y-58420000D01*
X137160000Y-58420000D02*
X137160000Y-53340000D01*
%TO.N,SDA*%
X119380000Y-96520000D02*
X127000000Y-104140000D01*
X132080000Y-104140000D02*
X132080000Y-76200000D01*
X119380000Y-93980000D02*
X119380000Y-96520000D01*
X127000000Y-104140000D02*
X132080000Y-104140000D01*
%TO.N,SCL*%
X111760000Y-101600000D02*
X116840000Y-101600000D01*
X129540000Y-91440000D02*
X129540000Y-86360000D01*
%TD*%
M02*
