%TF.GenerationSoftware,KiCad,Pcbnew,7.0.8*%
%TF.CreationDate,2025-10-26T15:42:26+01:00*%
%TF.ProjectId,Gyroskopicky-ovladac,4779726f-736b-46f7-9069-636b792d6f76,rev?*%
%TF.SameCoordinates,Original*%
%TF.FileFunction,Soldermask,Bot*%
%TF.FilePolarity,Negative*%
%FSLAX46Y46*%
G04 Gerber Fmt 4.6, Leading zero omitted, Abs format (unit mm)*
G04 Created by KiCad (PCBNEW 7.0.8) date 2025-10-26 15:42:26*
%MOMM*%
%LPD*%
G01*
G04 APERTURE LIST*
%ADD10C,1.524000*%
%ADD11C,1.600000*%
%ADD12O,1.600000X1.600000*%
%ADD13C,2.000000*%
G04 APERTURE END LIST*
D10*
%TO.C,ESP32*%
X98525000Y-61005000D03*
X98525000Y-63545000D03*
X98525000Y-66085000D03*
X98525000Y-68625000D03*
X98525000Y-71165000D03*
X98525000Y-73705000D03*
X98525000Y-76245000D03*
X98525000Y-78785000D03*
X98525000Y-81325000D03*
X98525000Y-83865000D03*
X98525000Y-86405000D03*
X98525000Y-88945000D03*
X98525000Y-91485000D03*
X98525000Y-94025000D03*
X98525000Y-96565000D03*
X123925000Y-61005000D03*
X123925000Y-63545000D03*
X123925000Y-66085000D03*
X123925000Y-68625000D03*
X123925000Y-71165000D03*
X123925000Y-73705000D03*
X123925000Y-76245000D03*
X123925000Y-78785000D03*
X123925000Y-81325000D03*
X123925000Y-83865000D03*
X123925000Y-86405000D03*
X123925000Y-88945000D03*
X123925000Y-91485000D03*
X123925000Y-94025000D03*
X123925000Y-96565000D03*
%TD*%
%TO.C,+Reboot-*%
X119380000Y-106680000D03*
X114300000Y-106680000D03*
%TD*%
D11*
%TO.C,R1*%
X157480000Y-83820000D03*
D12*
X157480000Y-73660000D03*
%TD*%
D10*
%TO.C,MPU6050*%
X141165000Y-71120000D03*
X141165000Y-68580000D03*
X141165000Y-66040000D03*
X141165000Y-63500000D03*
X141165000Y-60960000D03*
X141165000Y-58420000D03*
X141165000Y-55880000D03*
X141165000Y-53340000D03*
%TD*%
D13*
%TO.C,OLED*%
X132080000Y-68580000D03*
X132080000Y-63500000D03*
X132080000Y-58420000D03*
X132080000Y-53340000D03*
%TD*%
D10*
%TO.C,-Battery+*%
X134620000Y-106680000D03*
X139700000Y-106680000D03*
%TD*%
%TO.C,+Menu-*%
X104140000Y-106680000D03*
X99060000Y-106680000D03*
%TD*%
D11*
%TO.C,R2*%
X157480000Y-99060000D03*
D12*
X157480000Y-88900000D03*
%TD*%
D10*
%TO.C,Regulator3V3*%
X134620000Y-99060000D03*
X149860000Y-99060000D03*
X134581539Y-79923557D03*
X149883229Y-79992483D03*
%TD*%
%TO.C,+Switch+*%
X147320000Y-106680000D03*
X152400000Y-106680000D03*
%TD*%
M02*
