%TF.GenerationSoftware,KiCad,Pcbnew,7.0.8*%
%TF.CreationDate,2025-10-26T00:12:12+02:00*%
%TF.ProjectId,Gyroskopicky-ovladac,4779726f-736b-46f7-9069-636b792d6f76,rev?*%
%TF.SameCoordinates,Original*%
%TF.FileFunction,Legend,Top*%
%TF.FilePolarity,Positive*%
%FSLAX46Y46*%
G04 Gerber Fmt 4.6, Leading zero omitted, Abs format (unit mm)*
G04 Created by KiCad (PCBNEW 7.0.8) date 2025-10-26 00:12:12*
%MOMM*%
%LPD*%
G01*
G04 APERTURE LIST*
%ADD10C,0.100000*%
%ADD11C,0.150000*%
%ADD12C,0.120000*%
G04 APERTURE END LIST*
D10*
X117237143Y-129997419D02*
X117237143Y-128997419D01*
X117237143Y-128997419D02*
X117570476Y-129711704D01*
X117570476Y-129711704D02*
X117903809Y-128997419D01*
X117903809Y-128997419D02*
X117903809Y-129997419D01*
X118760952Y-129949800D02*
X118665714Y-129997419D01*
X118665714Y-129997419D02*
X118475238Y-129997419D01*
X118475238Y-129997419D02*
X118380000Y-129949800D01*
X118380000Y-129949800D02*
X118332381Y-129854561D01*
X118332381Y-129854561D02*
X118332381Y-129473609D01*
X118332381Y-129473609D02*
X118380000Y-129378371D01*
X118380000Y-129378371D02*
X118475238Y-129330752D01*
X118475238Y-129330752D02*
X118665714Y-129330752D01*
X118665714Y-129330752D02*
X118760952Y-129378371D01*
X118760952Y-129378371D02*
X118808571Y-129473609D01*
X118808571Y-129473609D02*
X118808571Y-129568847D01*
X118808571Y-129568847D02*
X118332381Y-129664085D01*
X119237143Y-129330752D02*
X119237143Y-129997419D01*
X119237143Y-129425990D02*
X119284762Y-129378371D01*
X119284762Y-129378371D02*
X119380000Y-129330752D01*
X119380000Y-129330752D02*
X119522857Y-129330752D01*
X119522857Y-129330752D02*
X119618095Y-129378371D01*
X119618095Y-129378371D02*
X119665714Y-129473609D01*
X119665714Y-129473609D02*
X119665714Y-129997419D01*
X120570476Y-129330752D02*
X120570476Y-129997419D01*
X120141905Y-129330752D02*
X120141905Y-129854561D01*
X120141905Y-129854561D02*
X120189524Y-129949800D01*
X120189524Y-129949800D02*
X120284762Y-129997419D01*
X120284762Y-129997419D02*
X120427619Y-129997419D01*
X120427619Y-129997419D02*
X120522857Y-129949800D01*
X120522857Y-129949800D02*
X120570476Y-129902180D01*
X121570476Y-129997419D02*
X120999048Y-129997419D01*
X121284762Y-129997419D02*
X121284762Y-128997419D01*
X121284762Y-128997419D02*
X121189524Y-129140276D01*
X121189524Y-129140276D02*
X121094286Y-129235514D01*
X121094286Y-129235514D02*
X120999048Y-129283133D01*
D11*
X106513333Y-104594819D02*
X106180000Y-104118628D01*
X105941905Y-104594819D02*
X105941905Y-103594819D01*
X105941905Y-103594819D02*
X106322857Y-103594819D01*
X106322857Y-103594819D02*
X106418095Y-103642438D01*
X106418095Y-103642438D02*
X106465714Y-103690057D01*
X106465714Y-103690057D02*
X106513333Y-103785295D01*
X106513333Y-103785295D02*
X106513333Y-103928152D01*
X106513333Y-103928152D02*
X106465714Y-104023390D01*
X106465714Y-104023390D02*
X106418095Y-104071009D01*
X106418095Y-104071009D02*
X106322857Y-104118628D01*
X106322857Y-104118628D02*
X105941905Y-104118628D01*
X107465714Y-104594819D02*
X106894286Y-104594819D01*
X107180000Y-104594819D02*
X107180000Y-103594819D01*
X107180000Y-103594819D02*
X107084762Y-103737676D01*
X107084762Y-103737676D02*
X106989524Y-103832914D01*
X106989524Y-103832914D02*
X106894286Y-103880533D01*
D10*
X89813332Y-91897419D02*
X89479999Y-91421228D01*
X89241904Y-91897419D02*
X89241904Y-90897419D01*
X89241904Y-90897419D02*
X89622856Y-90897419D01*
X89622856Y-90897419D02*
X89718094Y-90945038D01*
X89718094Y-90945038D02*
X89765713Y-90992657D01*
X89765713Y-90992657D02*
X89813332Y-91087895D01*
X89813332Y-91087895D02*
X89813332Y-91230752D01*
X89813332Y-91230752D02*
X89765713Y-91325990D01*
X89765713Y-91325990D02*
X89718094Y-91373609D01*
X89718094Y-91373609D02*
X89622856Y-91421228D01*
X89622856Y-91421228D02*
X89241904Y-91421228D01*
X90622856Y-91849800D02*
X90527618Y-91897419D01*
X90527618Y-91897419D02*
X90337142Y-91897419D01*
X90337142Y-91897419D02*
X90241904Y-91849800D01*
X90241904Y-91849800D02*
X90194285Y-91754561D01*
X90194285Y-91754561D02*
X90194285Y-91373609D01*
X90194285Y-91373609D02*
X90241904Y-91278371D01*
X90241904Y-91278371D02*
X90337142Y-91230752D01*
X90337142Y-91230752D02*
X90527618Y-91230752D01*
X90527618Y-91230752D02*
X90622856Y-91278371D01*
X90622856Y-91278371D02*
X90670475Y-91373609D01*
X90670475Y-91373609D02*
X90670475Y-91468847D01*
X90670475Y-91468847D02*
X90194285Y-91564085D01*
X91527618Y-91230752D02*
X91527618Y-92040276D01*
X91527618Y-92040276D02*
X91479999Y-92135514D01*
X91479999Y-92135514D02*
X91432380Y-92183133D01*
X91432380Y-92183133D02*
X91337142Y-92230752D01*
X91337142Y-92230752D02*
X91194285Y-92230752D01*
X91194285Y-92230752D02*
X91099047Y-92183133D01*
X91527618Y-91849800D02*
X91432380Y-91897419D01*
X91432380Y-91897419D02*
X91241904Y-91897419D01*
X91241904Y-91897419D02*
X91146666Y-91849800D01*
X91146666Y-91849800D02*
X91099047Y-91802180D01*
X91099047Y-91802180D02*
X91051428Y-91706942D01*
X91051428Y-91706942D02*
X91051428Y-91421228D01*
X91051428Y-91421228D02*
X91099047Y-91325990D01*
X91099047Y-91325990D02*
X91146666Y-91278371D01*
X91146666Y-91278371D02*
X91241904Y-91230752D01*
X91241904Y-91230752D02*
X91432380Y-91230752D01*
X91432380Y-91230752D02*
X91527618Y-91278371D01*
X92432380Y-91230752D02*
X92432380Y-91897419D01*
X92003809Y-91230752D02*
X92003809Y-91754561D01*
X92003809Y-91754561D02*
X92051428Y-91849800D01*
X92051428Y-91849800D02*
X92146666Y-91897419D01*
X92146666Y-91897419D02*
X92289523Y-91897419D01*
X92289523Y-91897419D02*
X92384761Y-91849800D01*
X92384761Y-91849800D02*
X92432380Y-91802180D01*
X93051428Y-91897419D02*
X92956190Y-91849800D01*
X92956190Y-91849800D02*
X92908571Y-91754561D01*
X92908571Y-91754561D02*
X92908571Y-90897419D01*
X93860952Y-91897419D02*
X93860952Y-91373609D01*
X93860952Y-91373609D02*
X93813333Y-91278371D01*
X93813333Y-91278371D02*
X93718095Y-91230752D01*
X93718095Y-91230752D02*
X93527619Y-91230752D01*
X93527619Y-91230752D02*
X93432381Y-91278371D01*
X93860952Y-91849800D02*
X93765714Y-91897419D01*
X93765714Y-91897419D02*
X93527619Y-91897419D01*
X93527619Y-91897419D02*
X93432381Y-91849800D01*
X93432381Y-91849800D02*
X93384762Y-91754561D01*
X93384762Y-91754561D02*
X93384762Y-91659323D01*
X93384762Y-91659323D02*
X93432381Y-91564085D01*
X93432381Y-91564085D02*
X93527619Y-91516466D01*
X93527619Y-91516466D02*
X93765714Y-91516466D01*
X93765714Y-91516466D02*
X93860952Y-91468847D01*
X94194286Y-91230752D02*
X94575238Y-91230752D01*
X94337143Y-90897419D02*
X94337143Y-91754561D01*
X94337143Y-91754561D02*
X94384762Y-91849800D01*
X94384762Y-91849800D02*
X94480000Y-91897419D01*
X94480000Y-91897419D02*
X94575238Y-91897419D01*
X95051429Y-91897419D02*
X94956191Y-91849800D01*
X94956191Y-91849800D02*
X94908572Y-91802180D01*
X94908572Y-91802180D02*
X94860953Y-91706942D01*
X94860953Y-91706942D02*
X94860953Y-91421228D01*
X94860953Y-91421228D02*
X94908572Y-91325990D01*
X94908572Y-91325990D02*
X94956191Y-91278371D01*
X94956191Y-91278371D02*
X95051429Y-91230752D01*
X95051429Y-91230752D02*
X95194286Y-91230752D01*
X95194286Y-91230752D02*
X95289524Y-91278371D01*
X95289524Y-91278371D02*
X95337143Y-91325990D01*
X95337143Y-91325990D02*
X95384762Y-91421228D01*
X95384762Y-91421228D02*
X95384762Y-91706942D01*
X95384762Y-91706942D02*
X95337143Y-91802180D01*
X95337143Y-91802180D02*
X95289524Y-91849800D01*
X95289524Y-91849800D02*
X95194286Y-91897419D01*
X95194286Y-91897419D02*
X95051429Y-91897419D01*
X95813334Y-91897419D02*
X95813334Y-91230752D01*
X95813334Y-91421228D02*
X95860953Y-91325990D01*
X95860953Y-91325990D02*
X95908572Y-91278371D01*
X95908572Y-91278371D02*
X96003810Y-91230752D01*
X96003810Y-91230752D02*
X96099048Y-91230752D01*
X96337144Y-90897419D02*
X96956191Y-90897419D01*
X96956191Y-90897419D02*
X96622858Y-91278371D01*
X96622858Y-91278371D02*
X96765715Y-91278371D01*
X96765715Y-91278371D02*
X96860953Y-91325990D01*
X96860953Y-91325990D02*
X96908572Y-91373609D01*
X96908572Y-91373609D02*
X96956191Y-91468847D01*
X96956191Y-91468847D02*
X96956191Y-91706942D01*
X96956191Y-91706942D02*
X96908572Y-91802180D01*
X96908572Y-91802180D02*
X96860953Y-91849800D01*
X96860953Y-91849800D02*
X96765715Y-91897419D01*
X96765715Y-91897419D02*
X96480001Y-91897419D01*
X96480001Y-91897419D02*
X96384763Y-91849800D01*
X96384763Y-91849800D02*
X96337144Y-91802180D01*
X97241906Y-90897419D02*
X97575239Y-91897419D01*
X97575239Y-91897419D02*
X97908572Y-90897419D01*
X98146668Y-90897419D02*
X98765715Y-90897419D01*
X98765715Y-90897419D02*
X98432382Y-91278371D01*
X98432382Y-91278371D02*
X98575239Y-91278371D01*
X98575239Y-91278371D02*
X98670477Y-91325990D01*
X98670477Y-91325990D02*
X98718096Y-91373609D01*
X98718096Y-91373609D02*
X98765715Y-91468847D01*
X98765715Y-91468847D02*
X98765715Y-91706942D01*
X98765715Y-91706942D02*
X98718096Y-91802180D01*
X98718096Y-91802180D02*
X98670477Y-91849800D01*
X98670477Y-91849800D02*
X98575239Y-91897419D01*
X98575239Y-91897419D02*
X98289525Y-91897419D01*
X98289525Y-91897419D02*
X98194287Y-91849800D01*
X98194287Y-91849800D02*
X98146668Y-91802180D01*
X101449524Y-71529800D02*
X101592381Y-71577419D01*
X101592381Y-71577419D02*
X101830476Y-71577419D01*
X101830476Y-71577419D02*
X101925714Y-71529800D01*
X101925714Y-71529800D02*
X101973333Y-71482180D01*
X101973333Y-71482180D02*
X102020952Y-71386942D01*
X102020952Y-71386942D02*
X102020952Y-71291704D01*
X102020952Y-71291704D02*
X101973333Y-71196466D01*
X101973333Y-71196466D02*
X101925714Y-71148847D01*
X101925714Y-71148847D02*
X101830476Y-71101228D01*
X101830476Y-71101228D02*
X101640000Y-71053609D01*
X101640000Y-71053609D02*
X101544762Y-71005990D01*
X101544762Y-71005990D02*
X101497143Y-70958371D01*
X101497143Y-70958371D02*
X101449524Y-70863133D01*
X101449524Y-70863133D02*
X101449524Y-70767895D01*
X101449524Y-70767895D02*
X101497143Y-70672657D01*
X101497143Y-70672657D02*
X101544762Y-70625038D01*
X101544762Y-70625038D02*
X101640000Y-70577419D01*
X101640000Y-70577419D02*
X101878095Y-70577419D01*
X101878095Y-70577419D02*
X102020952Y-70625038D01*
X102354286Y-70910752D02*
X102544762Y-71577419D01*
X102544762Y-71577419D02*
X102735238Y-71101228D01*
X102735238Y-71101228D02*
X102925714Y-71577419D01*
X102925714Y-71577419D02*
X103116190Y-70910752D01*
X103497143Y-71577419D02*
X103497143Y-70910752D01*
X103497143Y-70577419D02*
X103449524Y-70625038D01*
X103449524Y-70625038D02*
X103497143Y-70672657D01*
X103497143Y-70672657D02*
X103544762Y-70625038D01*
X103544762Y-70625038D02*
X103497143Y-70577419D01*
X103497143Y-70577419D02*
X103497143Y-70672657D01*
X103830476Y-70910752D02*
X104211428Y-70910752D01*
X103973333Y-70577419D02*
X103973333Y-71434561D01*
X103973333Y-71434561D02*
X104020952Y-71529800D01*
X104020952Y-71529800D02*
X104116190Y-71577419D01*
X104116190Y-71577419D02*
X104211428Y-71577419D01*
X104973333Y-71529800D02*
X104878095Y-71577419D01*
X104878095Y-71577419D02*
X104687619Y-71577419D01*
X104687619Y-71577419D02*
X104592381Y-71529800D01*
X104592381Y-71529800D02*
X104544762Y-71482180D01*
X104544762Y-71482180D02*
X104497143Y-71386942D01*
X104497143Y-71386942D02*
X104497143Y-71101228D01*
X104497143Y-71101228D02*
X104544762Y-71005990D01*
X104544762Y-71005990D02*
X104592381Y-70958371D01*
X104592381Y-70958371D02*
X104687619Y-70910752D01*
X104687619Y-70910752D02*
X104878095Y-70910752D01*
X104878095Y-70910752D02*
X104973333Y-70958371D01*
X105401905Y-71577419D02*
X105401905Y-70577419D01*
X105830476Y-71577419D02*
X105830476Y-71053609D01*
X105830476Y-71053609D02*
X105782857Y-70958371D01*
X105782857Y-70958371D02*
X105687619Y-70910752D01*
X105687619Y-70910752D02*
X105544762Y-70910752D01*
X105544762Y-70910752D02*
X105449524Y-70958371D01*
X105449524Y-70958371D02*
X105401905Y-71005990D01*
X106830476Y-71577419D02*
X106259048Y-71577419D01*
X106544762Y-71577419D02*
X106544762Y-70577419D01*
X106544762Y-70577419D02*
X106449524Y-70720276D01*
X106449524Y-70720276D02*
X106354286Y-70815514D01*
X106354286Y-70815514D02*
X106259048Y-70863133D01*
D11*
X106513333Y-94264819D02*
X106180000Y-93788628D01*
X105941905Y-94264819D02*
X105941905Y-93264819D01*
X105941905Y-93264819D02*
X106322857Y-93264819D01*
X106322857Y-93264819D02*
X106418095Y-93312438D01*
X106418095Y-93312438D02*
X106465714Y-93360057D01*
X106465714Y-93360057D02*
X106513333Y-93455295D01*
X106513333Y-93455295D02*
X106513333Y-93598152D01*
X106513333Y-93598152D02*
X106465714Y-93693390D01*
X106465714Y-93693390D02*
X106418095Y-93741009D01*
X106418095Y-93741009D02*
X106322857Y-93788628D01*
X106322857Y-93788628D02*
X105941905Y-93788628D01*
X106894286Y-93360057D02*
X106941905Y-93312438D01*
X106941905Y-93312438D02*
X107037143Y-93264819D01*
X107037143Y-93264819D02*
X107275238Y-93264819D01*
X107275238Y-93264819D02*
X107370476Y-93312438D01*
X107370476Y-93312438D02*
X107418095Y-93360057D01*
X107418095Y-93360057D02*
X107465714Y-93455295D01*
X107465714Y-93455295D02*
X107465714Y-93550533D01*
X107465714Y-93550533D02*
X107418095Y-93693390D01*
X107418095Y-93693390D02*
X106846667Y-94264819D01*
X106846667Y-94264819D02*
X107465714Y-94264819D01*
D10*
X140001904Y-129997419D02*
X139668571Y-129521228D01*
X139430476Y-129997419D02*
X139430476Y-128997419D01*
X139430476Y-128997419D02*
X139811428Y-128997419D01*
X139811428Y-128997419D02*
X139906666Y-129045038D01*
X139906666Y-129045038D02*
X139954285Y-129092657D01*
X139954285Y-129092657D02*
X140001904Y-129187895D01*
X140001904Y-129187895D02*
X140001904Y-129330752D01*
X140001904Y-129330752D02*
X139954285Y-129425990D01*
X139954285Y-129425990D02*
X139906666Y-129473609D01*
X139906666Y-129473609D02*
X139811428Y-129521228D01*
X139811428Y-129521228D02*
X139430476Y-129521228D01*
X140811428Y-129949800D02*
X140716190Y-129997419D01*
X140716190Y-129997419D02*
X140525714Y-129997419D01*
X140525714Y-129997419D02*
X140430476Y-129949800D01*
X140430476Y-129949800D02*
X140382857Y-129854561D01*
X140382857Y-129854561D02*
X140382857Y-129473609D01*
X140382857Y-129473609D02*
X140430476Y-129378371D01*
X140430476Y-129378371D02*
X140525714Y-129330752D01*
X140525714Y-129330752D02*
X140716190Y-129330752D01*
X140716190Y-129330752D02*
X140811428Y-129378371D01*
X140811428Y-129378371D02*
X140859047Y-129473609D01*
X140859047Y-129473609D02*
X140859047Y-129568847D01*
X140859047Y-129568847D02*
X140382857Y-129664085D01*
X141287619Y-129997419D02*
X141287619Y-128997419D01*
X141287619Y-129378371D02*
X141382857Y-129330752D01*
X141382857Y-129330752D02*
X141573333Y-129330752D01*
X141573333Y-129330752D02*
X141668571Y-129378371D01*
X141668571Y-129378371D02*
X141716190Y-129425990D01*
X141716190Y-129425990D02*
X141763809Y-129521228D01*
X141763809Y-129521228D02*
X141763809Y-129806942D01*
X141763809Y-129806942D02*
X141716190Y-129902180D01*
X141716190Y-129902180D02*
X141668571Y-129949800D01*
X141668571Y-129949800D02*
X141573333Y-129997419D01*
X141573333Y-129997419D02*
X141382857Y-129997419D01*
X141382857Y-129997419D02*
X141287619Y-129949800D01*
X142335238Y-129997419D02*
X142240000Y-129949800D01*
X142240000Y-129949800D02*
X142192381Y-129902180D01*
X142192381Y-129902180D02*
X142144762Y-129806942D01*
X142144762Y-129806942D02*
X142144762Y-129521228D01*
X142144762Y-129521228D02*
X142192381Y-129425990D01*
X142192381Y-129425990D02*
X142240000Y-129378371D01*
X142240000Y-129378371D02*
X142335238Y-129330752D01*
X142335238Y-129330752D02*
X142478095Y-129330752D01*
X142478095Y-129330752D02*
X142573333Y-129378371D01*
X142573333Y-129378371D02*
X142620952Y-129425990D01*
X142620952Y-129425990D02*
X142668571Y-129521228D01*
X142668571Y-129521228D02*
X142668571Y-129806942D01*
X142668571Y-129806942D02*
X142620952Y-129902180D01*
X142620952Y-129902180D02*
X142573333Y-129949800D01*
X142573333Y-129949800D02*
X142478095Y-129997419D01*
X142478095Y-129997419D02*
X142335238Y-129997419D01*
X143240000Y-129997419D02*
X143144762Y-129949800D01*
X143144762Y-129949800D02*
X143097143Y-129902180D01*
X143097143Y-129902180D02*
X143049524Y-129806942D01*
X143049524Y-129806942D02*
X143049524Y-129521228D01*
X143049524Y-129521228D02*
X143097143Y-129425990D01*
X143097143Y-129425990D02*
X143144762Y-129378371D01*
X143144762Y-129378371D02*
X143240000Y-129330752D01*
X143240000Y-129330752D02*
X143382857Y-129330752D01*
X143382857Y-129330752D02*
X143478095Y-129378371D01*
X143478095Y-129378371D02*
X143525714Y-129425990D01*
X143525714Y-129425990D02*
X143573333Y-129521228D01*
X143573333Y-129521228D02*
X143573333Y-129806942D01*
X143573333Y-129806942D02*
X143525714Y-129902180D01*
X143525714Y-129902180D02*
X143478095Y-129949800D01*
X143478095Y-129949800D02*
X143382857Y-129997419D01*
X143382857Y-129997419D02*
X143240000Y-129997419D01*
X143859048Y-129330752D02*
X144240000Y-129330752D01*
X144001905Y-128997419D02*
X144001905Y-129854561D01*
X144001905Y-129854561D02*
X144049524Y-129949800D01*
X144049524Y-129949800D02*
X144144762Y-129997419D01*
X144144762Y-129997419D02*
X144240000Y-129997419D01*
X145097143Y-129997419D02*
X144525715Y-129997419D01*
X144811429Y-129997419D02*
X144811429Y-128997419D01*
X144811429Y-128997419D02*
X144716191Y-129140276D01*
X144716191Y-129140276D02*
X144620953Y-129235514D01*
X144620953Y-129235514D02*
X144525715Y-129283133D01*
X132953333Y-119313609D02*
X133286666Y-119313609D01*
X133429523Y-119837419D02*
X132953333Y-119837419D01*
X132953333Y-119837419D02*
X132953333Y-118837419D01*
X132953333Y-118837419D02*
X133429523Y-118837419D01*
X133810476Y-119789800D02*
X133953333Y-119837419D01*
X133953333Y-119837419D02*
X134191428Y-119837419D01*
X134191428Y-119837419D02*
X134286666Y-119789800D01*
X134286666Y-119789800D02*
X134334285Y-119742180D01*
X134334285Y-119742180D02*
X134381904Y-119646942D01*
X134381904Y-119646942D02*
X134381904Y-119551704D01*
X134381904Y-119551704D02*
X134334285Y-119456466D01*
X134334285Y-119456466D02*
X134286666Y-119408847D01*
X134286666Y-119408847D02*
X134191428Y-119361228D01*
X134191428Y-119361228D02*
X134000952Y-119313609D01*
X134000952Y-119313609D02*
X133905714Y-119265990D01*
X133905714Y-119265990D02*
X133858095Y-119218371D01*
X133858095Y-119218371D02*
X133810476Y-119123133D01*
X133810476Y-119123133D02*
X133810476Y-119027895D01*
X133810476Y-119027895D02*
X133858095Y-118932657D01*
X133858095Y-118932657D02*
X133905714Y-118885038D01*
X133905714Y-118885038D02*
X134000952Y-118837419D01*
X134000952Y-118837419D02*
X134239047Y-118837419D01*
X134239047Y-118837419D02*
X134381904Y-118885038D01*
X134810476Y-119837419D02*
X134810476Y-118837419D01*
X134810476Y-118837419D02*
X135191428Y-118837419D01*
X135191428Y-118837419D02*
X135286666Y-118885038D01*
X135286666Y-118885038D02*
X135334285Y-118932657D01*
X135334285Y-118932657D02*
X135381904Y-119027895D01*
X135381904Y-119027895D02*
X135381904Y-119170752D01*
X135381904Y-119170752D02*
X135334285Y-119265990D01*
X135334285Y-119265990D02*
X135286666Y-119313609D01*
X135286666Y-119313609D02*
X135191428Y-119361228D01*
X135191428Y-119361228D02*
X134810476Y-119361228D01*
X136334285Y-119837419D02*
X135762857Y-119837419D01*
X136048571Y-119837419D02*
X136048571Y-118837419D01*
X136048571Y-118837419D02*
X135953333Y-118980276D01*
X135953333Y-118980276D02*
X135858095Y-119075514D01*
X135858095Y-119075514D02*
X135762857Y-119123133D01*
X93972380Y-71053609D02*
X94115237Y-71101228D01*
X94115237Y-71101228D02*
X94162856Y-71148847D01*
X94162856Y-71148847D02*
X94210475Y-71244085D01*
X94210475Y-71244085D02*
X94210475Y-71386942D01*
X94210475Y-71386942D02*
X94162856Y-71482180D01*
X94162856Y-71482180D02*
X94115237Y-71529800D01*
X94115237Y-71529800D02*
X94019999Y-71577419D01*
X94019999Y-71577419D02*
X93639047Y-71577419D01*
X93639047Y-71577419D02*
X93639047Y-70577419D01*
X93639047Y-70577419D02*
X93972380Y-70577419D01*
X93972380Y-70577419D02*
X94067618Y-70625038D01*
X94067618Y-70625038D02*
X94115237Y-70672657D01*
X94115237Y-70672657D02*
X94162856Y-70767895D01*
X94162856Y-70767895D02*
X94162856Y-70863133D01*
X94162856Y-70863133D02*
X94115237Y-70958371D01*
X94115237Y-70958371D02*
X94067618Y-71005990D01*
X94067618Y-71005990D02*
X93972380Y-71053609D01*
X93972380Y-71053609D02*
X93639047Y-71053609D01*
X95067618Y-71577419D02*
X95067618Y-71053609D01*
X95067618Y-71053609D02*
X95019999Y-70958371D01*
X95019999Y-70958371D02*
X94924761Y-70910752D01*
X94924761Y-70910752D02*
X94734285Y-70910752D01*
X94734285Y-70910752D02*
X94639047Y-70958371D01*
X95067618Y-71529800D02*
X94972380Y-71577419D01*
X94972380Y-71577419D02*
X94734285Y-71577419D01*
X94734285Y-71577419D02*
X94639047Y-71529800D01*
X94639047Y-71529800D02*
X94591428Y-71434561D01*
X94591428Y-71434561D02*
X94591428Y-71339323D01*
X94591428Y-71339323D02*
X94639047Y-71244085D01*
X94639047Y-71244085D02*
X94734285Y-71196466D01*
X94734285Y-71196466D02*
X94972380Y-71196466D01*
X94972380Y-71196466D02*
X95067618Y-71148847D01*
X95400952Y-70910752D02*
X95781904Y-70910752D01*
X95543809Y-70577419D02*
X95543809Y-71434561D01*
X95543809Y-71434561D02*
X95591428Y-71529800D01*
X95591428Y-71529800D02*
X95686666Y-71577419D01*
X95686666Y-71577419D02*
X95781904Y-71577419D01*
X95972381Y-70910752D02*
X96353333Y-70910752D01*
X96115238Y-70577419D02*
X96115238Y-71434561D01*
X96115238Y-71434561D02*
X96162857Y-71529800D01*
X96162857Y-71529800D02*
X96258095Y-71577419D01*
X96258095Y-71577419D02*
X96353333Y-71577419D01*
X97067619Y-71529800D02*
X96972381Y-71577419D01*
X96972381Y-71577419D02*
X96781905Y-71577419D01*
X96781905Y-71577419D02*
X96686667Y-71529800D01*
X96686667Y-71529800D02*
X96639048Y-71434561D01*
X96639048Y-71434561D02*
X96639048Y-71053609D01*
X96639048Y-71053609D02*
X96686667Y-70958371D01*
X96686667Y-70958371D02*
X96781905Y-70910752D01*
X96781905Y-70910752D02*
X96972381Y-70910752D01*
X96972381Y-70910752D02*
X97067619Y-70958371D01*
X97067619Y-70958371D02*
X97115238Y-71053609D01*
X97115238Y-71053609D02*
X97115238Y-71148847D01*
X97115238Y-71148847D02*
X96639048Y-71244085D01*
X97543810Y-71577419D02*
X97543810Y-70910752D01*
X97543810Y-71101228D02*
X97591429Y-71005990D01*
X97591429Y-71005990D02*
X97639048Y-70958371D01*
X97639048Y-70958371D02*
X97734286Y-70910752D01*
X97734286Y-70910752D02*
X97829524Y-70910752D01*
X98067620Y-70910752D02*
X98305715Y-71577419D01*
X98543810Y-70910752D02*
X98305715Y-71577419D01*
X98305715Y-71577419D02*
X98210477Y-71815514D01*
X98210477Y-71815514D02*
X98162858Y-71863133D01*
X98162858Y-71863133D02*
X98067620Y-71910752D01*
X99448572Y-71577419D02*
X98877144Y-71577419D01*
X99162858Y-71577419D02*
X99162858Y-70577419D01*
X99162858Y-70577419D02*
X99067620Y-70720276D01*
X99067620Y-70720276D02*
X98972382Y-70815514D01*
X98972382Y-70815514D02*
X98877144Y-70863133D01*
X132691428Y-70577419D02*
X132881904Y-70577419D01*
X132881904Y-70577419D02*
X132977142Y-70625038D01*
X132977142Y-70625038D02*
X133072380Y-70720276D01*
X133072380Y-70720276D02*
X133119999Y-70910752D01*
X133119999Y-70910752D02*
X133119999Y-71244085D01*
X133119999Y-71244085D02*
X133072380Y-71434561D01*
X133072380Y-71434561D02*
X132977142Y-71529800D01*
X132977142Y-71529800D02*
X132881904Y-71577419D01*
X132881904Y-71577419D02*
X132691428Y-71577419D01*
X132691428Y-71577419D02*
X132596190Y-71529800D01*
X132596190Y-71529800D02*
X132500952Y-71434561D01*
X132500952Y-71434561D02*
X132453333Y-71244085D01*
X132453333Y-71244085D02*
X132453333Y-70910752D01*
X132453333Y-70910752D02*
X132500952Y-70720276D01*
X132500952Y-70720276D02*
X132596190Y-70625038D01*
X132596190Y-70625038D02*
X132691428Y-70577419D01*
X134024761Y-71577419D02*
X133548571Y-71577419D01*
X133548571Y-71577419D02*
X133548571Y-70577419D01*
X134358095Y-71053609D02*
X134691428Y-71053609D01*
X134834285Y-71577419D02*
X134358095Y-71577419D01*
X134358095Y-71577419D02*
X134358095Y-70577419D01*
X134358095Y-70577419D02*
X134834285Y-70577419D01*
X135262857Y-71577419D02*
X135262857Y-70577419D01*
X135262857Y-70577419D02*
X135500952Y-70577419D01*
X135500952Y-70577419D02*
X135643809Y-70625038D01*
X135643809Y-70625038D02*
X135739047Y-70720276D01*
X135739047Y-70720276D02*
X135786666Y-70815514D01*
X135786666Y-70815514D02*
X135834285Y-71005990D01*
X135834285Y-71005990D02*
X135834285Y-71148847D01*
X135834285Y-71148847D02*
X135786666Y-71339323D01*
X135786666Y-71339323D02*
X135739047Y-71434561D01*
X135739047Y-71434561D02*
X135643809Y-71529800D01*
X135643809Y-71529800D02*
X135500952Y-71577419D01*
X135500952Y-71577419D02*
X135262857Y-71577419D01*
X136786666Y-71577419D02*
X136215238Y-71577419D01*
X136500952Y-71577419D02*
X136500952Y-70577419D01*
X136500952Y-70577419D02*
X136405714Y-70720276D01*
X136405714Y-70720276D02*
X136310476Y-70815514D01*
X136310476Y-70815514D02*
X136215238Y-70863133D01*
X99806667Y-117757419D02*
X99806667Y-116757419D01*
X99806667Y-116757419D02*
X100140000Y-117471704D01*
X100140000Y-117471704D02*
X100473333Y-116757419D01*
X100473333Y-116757419D02*
X100473333Y-117757419D01*
X100949524Y-117757419D02*
X100949524Y-116757419D01*
X100949524Y-116757419D02*
X101330476Y-116757419D01*
X101330476Y-116757419D02*
X101425714Y-116805038D01*
X101425714Y-116805038D02*
X101473333Y-116852657D01*
X101473333Y-116852657D02*
X101520952Y-116947895D01*
X101520952Y-116947895D02*
X101520952Y-117090752D01*
X101520952Y-117090752D02*
X101473333Y-117185990D01*
X101473333Y-117185990D02*
X101425714Y-117233609D01*
X101425714Y-117233609D02*
X101330476Y-117281228D01*
X101330476Y-117281228D02*
X100949524Y-117281228D01*
X101949524Y-116757419D02*
X101949524Y-117566942D01*
X101949524Y-117566942D02*
X101997143Y-117662180D01*
X101997143Y-117662180D02*
X102044762Y-117709800D01*
X102044762Y-117709800D02*
X102140000Y-117757419D01*
X102140000Y-117757419D02*
X102330476Y-117757419D01*
X102330476Y-117757419D02*
X102425714Y-117709800D01*
X102425714Y-117709800D02*
X102473333Y-117662180D01*
X102473333Y-117662180D02*
X102520952Y-117566942D01*
X102520952Y-117566942D02*
X102520952Y-116757419D01*
X103520952Y-117757419D02*
X102949524Y-117757419D01*
X103235238Y-117757419D02*
X103235238Y-116757419D01*
X103235238Y-116757419D02*
X103140000Y-116900276D01*
X103140000Y-116900276D02*
X103044762Y-116995514D01*
X103044762Y-116995514D02*
X102949524Y-117043133D01*
D12*
%TO.C,R1*%
X102640000Y-99060000D02*
X103410000Y-99060000D01*
X103410000Y-97690000D02*
X103410000Y-100430000D01*
X103410000Y-100430000D02*
X109950000Y-100430000D01*
X109950000Y-97690000D02*
X103410000Y-97690000D01*
X109950000Y-100430000D02*
X109950000Y-97690000D01*
X110720000Y-99060000D02*
X109950000Y-99060000D01*
%TO.C,R2*%
X110720000Y-91440000D02*
X109950000Y-91440000D01*
X109950000Y-92810000D02*
X109950000Y-90070000D01*
X109950000Y-90070000D02*
X103410000Y-90070000D01*
X103410000Y-92810000D02*
X109950000Y-92810000D01*
X103410000Y-90070000D02*
X103410000Y-92810000D01*
X102640000Y-91440000D02*
X103410000Y-91440000D01*
%TD*%
M02*
