%TF.GenerationSoftware,KiCad,Pcbnew,7.0.8*%
%TF.CreationDate,2025-10-26T00:12:12+02:00*%
%TF.ProjectId,Gyroskopicky-ovladac,4779726f-736b-46f7-9069-636b792d6f76,rev?*%
%TF.SameCoordinates,Original*%
%TF.FileFunction,Soldermask,Bot*%
%TF.FilePolarity,Negative*%
%FSLAX46Y46*%
G04 Gerber Fmt 4.6, Leading zero omitted, Abs format (unit mm)*
G04 Created by KiCad (PCBNEW 7.0.8) date 2025-10-26 00:12:12*
%MOMM*%
%LPD*%
G01*
G04 APERTURE LIST*
%ADD10C,1.524000*%
%ADD11C,1.600000*%
%ADD12O,1.600000X1.600000*%
%ADD13C,2.000000*%
G04 APERTURE END LIST*
D10*
%TO.C,Menu1*%
X124460000Y-127000000D03*
X129540000Y-127000000D03*
%TD*%
D11*
%TO.C,R1*%
X101600000Y-99060000D03*
D12*
X111760000Y-99060000D03*
%TD*%
D10*
%TO.C,Regulator3V3*%
X111760000Y-86360000D03*
X111760000Y-76200000D03*
X91440000Y-86360000D03*
X91440000Y-76200000D03*
%TD*%
%TO.C,Switch1*%
X109220000Y-66040000D03*
X104140000Y-66040000D03*
%TD*%
D11*
%TO.C,R2*%
X111760000Y-91440000D03*
D12*
X101600000Y-91440000D03*
%TD*%
D10*
%TO.C,Reboot1*%
X139700000Y-127000000D03*
X144780000Y-127000000D03*
%TD*%
%TO.C,ESP1*%
X122385000Y-82405000D03*
X122385000Y-84945000D03*
X122385000Y-87485000D03*
X122385000Y-90025000D03*
X122385000Y-92565000D03*
X122385000Y-95105000D03*
X122385000Y-97645000D03*
X122385000Y-100185000D03*
X122385000Y-102725000D03*
X122385000Y-105265000D03*
X122385000Y-107805000D03*
X122385000Y-110345000D03*
X122385000Y-112885000D03*
X122385000Y-115425000D03*
X122385000Y-117965000D03*
X147785000Y-82405000D03*
X147785000Y-84945000D03*
X147785000Y-87485000D03*
X147785000Y-90025000D03*
X147785000Y-92565000D03*
X147785000Y-95105000D03*
X147785000Y-97645000D03*
X147785000Y-100185000D03*
X147785000Y-102725000D03*
X147785000Y-105265000D03*
X147785000Y-107805000D03*
X147785000Y-110345000D03*
X147785000Y-112885000D03*
X147785000Y-115425000D03*
X147785000Y-117965000D03*
%TD*%
%TO.C,Battery1*%
X91440000Y-66040000D03*
X96520000Y-66040000D03*
%TD*%
D13*
%TO.C,OLED1*%
X142240000Y-66040000D03*
X137160000Y-66040000D03*
X132080000Y-66040000D03*
X127000000Y-66040000D03*
%TD*%
D10*
%TO.C,MPU1*%
X111760000Y-109220000D03*
X109220000Y-109220000D03*
X106680000Y-109220000D03*
X104140000Y-109220000D03*
X101600000Y-109220000D03*
X99060000Y-109220000D03*
X96520000Y-109220000D03*
X93980000Y-109220000D03*
%TD*%
M02*
