%TF.GenerationSoftware,KiCad,Pcbnew,7.0.8*%
%TF.CreationDate,2025-10-26T01:44:15+02:00*%
%TF.ProjectId,Gyroskopicky-ovladac,4779726f-736b-46f7-9069-636b792d6f76,rev?*%
%TF.SameCoordinates,Original*%
%TF.FileFunction,Legend,Top*%
%TF.FilePolarity,Positive*%
%FSLAX46Y46*%
G04 Gerber Fmt 4.6, Leading zero omitted, Abs format (unit mm)*
G04 Created by KiCad (PCBNEW 7.0.8) date 2025-10-26 01:44:15*
%MOMM*%
%LPD*%
G01*
G04 APERTURE LIST*
%ADD10C,0.100000*%
%ADD11C,0.150000*%
%ADD12C,0.120000*%
G04 APERTURE END LIST*
D10*
X84431428Y-57377419D02*
X84621904Y-57377419D01*
X84621904Y-57377419D02*
X84717142Y-57425038D01*
X84717142Y-57425038D02*
X84812380Y-57520276D01*
X84812380Y-57520276D02*
X84859999Y-57710752D01*
X84859999Y-57710752D02*
X84859999Y-58044085D01*
X84859999Y-58044085D02*
X84812380Y-58234561D01*
X84812380Y-58234561D02*
X84717142Y-58329800D01*
X84717142Y-58329800D02*
X84621904Y-58377419D01*
X84621904Y-58377419D02*
X84431428Y-58377419D01*
X84431428Y-58377419D02*
X84336190Y-58329800D01*
X84336190Y-58329800D02*
X84240952Y-58234561D01*
X84240952Y-58234561D02*
X84193333Y-58044085D01*
X84193333Y-58044085D02*
X84193333Y-57710752D01*
X84193333Y-57710752D02*
X84240952Y-57520276D01*
X84240952Y-57520276D02*
X84336190Y-57425038D01*
X84336190Y-57425038D02*
X84431428Y-57377419D01*
X85764761Y-58377419D02*
X85288571Y-58377419D01*
X85288571Y-58377419D02*
X85288571Y-57377419D01*
X86098095Y-57853609D02*
X86431428Y-57853609D01*
X86574285Y-58377419D02*
X86098095Y-58377419D01*
X86098095Y-58377419D02*
X86098095Y-57377419D01*
X86098095Y-57377419D02*
X86574285Y-57377419D01*
X87002857Y-58377419D02*
X87002857Y-57377419D01*
X87002857Y-57377419D02*
X87240952Y-57377419D01*
X87240952Y-57377419D02*
X87383809Y-57425038D01*
X87383809Y-57425038D02*
X87479047Y-57520276D01*
X87479047Y-57520276D02*
X87526666Y-57615514D01*
X87526666Y-57615514D02*
X87574285Y-57805990D01*
X87574285Y-57805990D02*
X87574285Y-57948847D01*
X87574285Y-57948847D02*
X87526666Y-58139323D01*
X87526666Y-58139323D02*
X87479047Y-58234561D01*
X87479047Y-58234561D02*
X87383809Y-58329800D01*
X87383809Y-58329800D02*
X87240952Y-58377419D01*
X87240952Y-58377419D02*
X87002857Y-58377419D01*
X88526666Y-58377419D02*
X87955238Y-58377419D01*
X88240952Y-58377419D02*
X88240952Y-57377419D01*
X88240952Y-57377419D02*
X88145714Y-57520276D01*
X88145714Y-57520276D02*
X88050476Y-57615514D01*
X88050476Y-57615514D02*
X87955238Y-57663133D01*
D11*
X130164819Y-89066666D02*
X129688628Y-89399999D01*
X130164819Y-89638094D02*
X129164819Y-89638094D01*
X129164819Y-89638094D02*
X129164819Y-89257142D01*
X129164819Y-89257142D02*
X129212438Y-89161904D01*
X129212438Y-89161904D02*
X129260057Y-89114285D01*
X129260057Y-89114285D02*
X129355295Y-89066666D01*
X129355295Y-89066666D02*
X129498152Y-89066666D01*
X129498152Y-89066666D02*
X129593390Y-89114285D01*
X129593390Y-89114285D02*
X129641009Y-89161904D01*
X129641009Y-89161904D02*
X129688628Y-89257142D01*
X129688628Y-89257142D02*
X129688628Y-89638094D01*
X130164819Y-88114285D02*
X130164819Y-88685713D01*
X130164819Y-88399999D02*
X129164819Y-88399999D01*
X129164819Y-88399999D02*
X129307676Y-88495237D01*
X129307676Y-88495237D02*
X129402914Y-88590475D01*
X129402914Y-88590475D02*
X129450533Y-88685713D01*
D10*
X63542580Y-79137143D02*
X64542580Y-79137143D01*
X64542580Y-79137143D02*
X63828295Y-79470476D01*
X63828295Y-79470476D02*
X64542580Y-79803809D01*
X64542580Y-79803809D02*
X63542580Y-79803809D01*
X63590200Y-80660952D02*
X63542580Y-80565714D01*
X63542580Y-80565714D02*
X63542580Y-80375238D01*
X63542580Y-80375238D02*
X63590200Y-80280000D01*
X63590200Y-80280000D02*
X63685438Y-80232381D01*
X63685438Y-80232381D02*
X64066390Y-80232381D01*
X64066390Y-80232381D02*
X64161628Y-80280000D01*
X64161628Y-80280000D02*
X64209247Y-80375238D01*
X64209247Y-80375238D02*
X64209247Y-80565714D01*
X64209247Y-80565714D02*
X64161628Y-80660952D01*
X64161628Y-80660952D02*
X64066390Y-80708571D01*
X64066390Y-80708571D02*
X63971152Y-80708571D01*
X63971152Y-80708571D02*
X63875914Y-80232381D01*
X64209247Y-81137143D02*
X63542580Y-81137143D01*
X64114009Y-81137143D02*
X64161628Y-81184762D01*
X64161628Y-81184762D02*
X64209247Y-81280000D01*
X64209247Y-81280000D02*
X64209247Y-81422857D01*
X64209247Y-81422857D02*
X64161628Y-81518095D01*
X64161628Y-81518095D02*
X64066390Y-81565714D01*
X64066390Y-81565714D02*
X63542580Y-81565714D01*
X64209247Y-82470476D02*
X63542580Y-82470476D01*
X64209247Y-82041905D02*
X63685438Y-82041905D01*
X63685438Y-82041905D02*
X63590200Y-82089524D01*
X63590200Y-82089524D02*
X63542580Y-82184762D01*
X63542580Y-82184762D02*
X63542580Y-82327619D01*
X63542580Y-82327619D02*
X63590200Y-82422857D01*
X63590200Y-82422857D02*
X63637819Y-82470476D01*
X63542580Y-83470476D02*
X63542580Y-82899048D01*
X63542580Y-83184762D02*
X64542580Y-83184762D01*
X64542580Y-83184762D02*
X64399723Y-83089524D01*
X64399723Y-83089524D02*
X64304485Y-82994286D01*
X64304485Y-82994286D02*
X64256866Y-82899048D01*
X126849524Y-63909800D02*
X126992381Y-63957419D01*
X126992381Y-63957419D02*
X127230476Y-63957419D01*
X127230476Y-63957419D02*
X127325714Y-63909800D01*
X127325714Y-63909800D02*
X127373333Y-63862180D01*
X127373333Y-63862180D02*
X127420952Y-63766942D01*
X127420952Y-63766942D02*
X127420952Y-63671704D01*
X127420952Y-63671704D02*
X127373333Y-63576466D01*
X127373333Y-63576466D02*
X127325714Y-63528847D01*
X127325714Y-63528847D02*
X127230476Y-63481228D01*
X127230476Y-63481228D02*
X127040000Y-63433609D01*
X127040000Y-63433609D02*
X126944762Y-63385990D01*
X126944762Y-63385990D02*
X126897143Y-63338371D01*
X126897143Y-63338371D02*
X126849524Y-63243133D01*
X126849524Y-63243133D02*
X126849524Y-63147895D01*
X126849524Y-63147895D02*
X126897143Y-63052657D01*
X126897143Y-63052657D02*
X126944762Y-63005038D01*
X126944762Y-63005038D02*
X127040000Y-62957419D01*
X127040000Y-62957419D02*
X127278095Y-62957419D01*
X127278095Y-62957419D02*
X127420952Y-63005038D01*
X127754286Y-63290752D02*
X127944762Y-63957419D01*
X127944762Y-63957419D02*
X128135238Y-63481228D01*
X128135238Y-63481228D02*
X128325714Y-63957419D01*
X128325714Y-63957419D02*
X128516190Y-63290752D01*
X128897143Y-63957419D02*
X128897143Y-63290752D01*
X128897143Y-62957419D02*
X128849524Y-63005038D01*
X128849524Y-63005038D02*
X128897143Y-63052657D01*
X128897143Y-63052657D02*
X128944762Y-63005038D01*
X128944762Y-63005038D02*
X128897143Y-62957419D01*
X128897143Y-62957419D02*
X128897143Y-63052657D01*
X129230476Y-63290752D02*
X129611428Y-63290752D01*
X129373333Y-62957419D02*
X129373333Y-63814561D01*
X129373333Y-63814561D02*
X129420952Y-63909800D01*
X129420952Y-63909800D02*
X129516190Y-63957419D01*
X129516190Y-63957419D02*
X129611428Y-63957419D01*
X130373333Y-63909800D02*
X130278095Y-63957419D01*
X130278095Y-63957419D02*
X130087619Y-63957419D01*
X130087619Y-63957419D02*
X129992381Y-63909800D01*
X129992381Y-63909800D02*
X129944762Y-63862180D01*
X129944762Y-63862180D02*
X129897143Y-63766942D01*
X129897143Y-63766942D02*
X129897143Y-63481228D01*
X129897143Y-63481228D02*
X129944762Y-63385990D01*
X129944762Y-63385990D02*
X129992381Y-63338371D01*
X129992381Y-63338371D02*
X130087619Y-63290752D01*
X130087619Y-63290752D02*
X130278095Y-63290752D01*
X130278095Y-63290752D02*
X130373333Y-63338371D01*
X130801905Y-63957419D02*
X130801905Y-62957419D01*
X131230476Y-63957419D02*
X131230476Y-63433609D01*
X131230476Y-63433609D02*
X131182857Y-63338371D01*
X131182857Y-63338371D02*
X131087619Y-63290752D01*
X131087619Y-63290752D02*
X130944762Y-63290752D01*
X130944762Y-63290752D02*
X130849524Y-63338371D01*
X130849524Y-63338371D02*
X130801905Y-63385990D01*
X132230476Y-63957419D02*
X131659048Y-63957419D01*
X131944762Y-63957419D02*
X131944762Y-62957419D01*
X131944762Y-62957419D02*
X131849524Y-63100276D01*
X131849524Y-63100276D02*
X131754286Y-63195514D01*
X131754286Y-63195514D02*
X131659048Y-63243133D01*
D11*
X127284819Y-89066666D02*
X126808628Y-89399999D01*
X127284819Y-89638094D02*
X126284819Y-89638094D01*
X126284819Y-89638094D02*
X126284819Y-89257142D01*
X126284819Y-89257142D02*
X126332438Y-89161904D01*
X126332438Y-89161904D02*
X126380057Y-89114285D01*
X126380057Y-89114285D02*
X126475295Y-89066666D01*
X126475295Y-89066666D02*
X126618152Y-89066666D01*
X126618152Y-89066666D02*
X126713390Y-89114285D01*
X126713390Y-89114285D02*
X126761009Y-89161904D01*
X126761009Y-89161904D02*
X126808628Y-89257142D01*
X126808628Y-89257142D02*
X126808628Y-89638094D01*
X126380057Y-88685713D02*
X126332438Y-88638094D01*
X126332438Y-88638094D02*
X126284819Y-88542856D01*
X126284819Y-88542856D02*
X126284819Y-88304761D01*
X126284819Y-88304761D02*
X126332438Y-88209523D01*
X126332438Y-88209523D02*
X126380057Y-88161904D01*
X126380057Y-88161904D02*
X126475295Y-88114285D01*
X126475295Y-88114285D02*
X126570533Y-88114285D01*
X126570533Y-88114285D02*
X126713390Y-88161904D01*
X126713390Y-88161904D02*
X127284819Y-88733332D01*
X127284819Y-88733332D02*
X127284819Y-88114285D01*
D10*
X63542580Y-66341904D02*
X64018771Y-66008571D01*
X63542580Y-65770476D02*
X64542580Y-65770476D01*
X64542580Y-65770476D02*
X64542580Y-66151428D01*
X64542580Y-66151428D02*
X64494961Y-66246666D01*
X64494961Y-66246666D02*
X64447342Y-66294285D01*
X64447342Y-66294285D02*
X64352104Y-66341904D01*
X64352104Y-66341904D02*
X64209247Y-66341904D01*
X64209247Y-66341904D02*
X64114009Y-66294285D01*
X64114009Y-66294285D02*
X64066390Y-66246666D01*
X64066390Y-66246666D02*
X64018771Y-66151428D01*
X64018771Y-66151428D02*
X64018771Y-65770476D01*
X63590200Y-67151428D02*
X63542580Y-67056190D01*
X63542580Y-67056190D02*
X63542580Y-66865714D01*
X63542580Y-66865714D02*
X63590200Y-66770476D01*
X63590200Y-66770476D02*
X63685438Y-66722857D01*
X63685438Y-66722857D02*
X64066390Y-66722857D01*
X64066390Y-66722857D02*
X64161628Y-66770476D01*
X64161628Y-66770476D02*
X64209247Y-66865714D01*
X64209247Y-66865714D02*
X64209247Y-67056190D01*
X64209247Y-67056190D02*
X64161628Y-67151428D01*
X64161628Y-67151428D02*
X64066390Y-67199047D01*
X64066390Y-67199047D02*
X63971152Y-67199047D01*
X63971152Y-67199047D02*
X63875914Y-66722857D01*
X63542580Y-67627619D02*
X64542580Y-67627619D01*
X64161628Y-67627619D02*
X64209247Y-67722857D01*
X64209247Y-67722857D02*
X64209247Y-67913333D01*
X64209247Y-67913333D02*
X64161628Y-68008571D01*
X64161628Y-68008571D02*
X64114009Y-68056190D01*
X64114009Y-68056190D02*
X64018771Y-68103809D01*
X64018771Y-68103809D02*
X63733057Y-68103809D01*
X63733057Y-68103809D02*
X63637819Y-68056190D01*
X63637819Y-68056190D02*
X63590200Y-68008571D01*
X63590200Y-68008571D02*
X63542580Y-67913333D01*
X63542580Y-67913333D02*
X63542580Y-67722857D01*
X63542580Y-67722857D02*
X63590200Y-67627619D01*
X63542580Y-68675238D02*
X63590200Y-68580000D01*
X63590200Y-68580000D02*
X63637819Y-68532381D01*
X63637819Y-68532381D02*
X63733057Y-68484762D01*
X63733057Y-68484762D02*
X64018771Y-68484762D01*
X64018771Y-68484762D02*
X64114009Y-68532381D01*
X64114009Y-68532381D02*
X64161628Y-68580000D01*
X64161628Y-68580000D02*
X64209247Y-68675238D01*
X64209247Y-68675238D02*
X64209247Y-68818095D01*
X64209247Y-68818095D02*
X64161628Y-68913333D01*
X64161628Y-68913333D02*
X64114009Y-68960952D01*
X64114009Y-68960952D02*
X64018771Y-69008571D01*
X64018771Y-69008571D02*
X63733057Y-69008571D01*
X63733057Y-69008571D02*
X63637819Y-68960952D01*
X63637819Y-68960952D02*
X63590200Y-68913333D01*
X63590200Y-68913333D02*
X63542580Y-68818095D01*
X63542580Y-68818095D02*
X63542580Y-68675238D01*
X63542580Y-69580000D02*
X63590200Y-69484762D01*
X63590200Y-69484762D02*
X63637819Y-69437143D01*
X63637819Y-69437143D02*
X63733057Y-69389524D01*
X63733057Y-69389524D02*
X64018771Y-69389524D01*
X64018771Y-69389524D02*
X64114009Y-69437143D01*
X64114009Y-69437143D02*
X64161628Y-69484762D01*
X64161628Y-69484762D02*
X64209247Y-69580000D01*
X64209247Y-69580000D02*
X64209247Y-69722857D01*
X64209247Y-69722857D02*
X64161628Y-69818095D01*
X64161628Y-69818095D02*
X64114009Y-69865714D01*
X64114009Y-69865714D02*
X64018771Y-69913333D01*
X64018771Y-69913333D02*
X63733057Y-69913333D01*
X63733057Y-69913333D02*
X63637819Y-69865714D01*
X63637819Y-69865714D02*
X63590200Y-69818095D01*
X63590200Y-69818095D02*
X63542580Y-69722857D01*
X63542580Y-69722857D02*
X63542580Y-69580000D01*
X64209247Y-70199048D02*
X64209247Y-70580000D01*
X64542580Y-70341905D02*
X63685438Y-70341905D01*
X63685438Y-70341905D02*
X63590200Y-70389524D01*
X63590200Y-70389524D02*
X63542580Y-70484762D01*
X63542580Y-70484762D02*
X63542580Y-70580000D01*
X63542580Y-71437143D02*
X63542580Y-70865715D01*
X63542580Y-71151429D02*
X64542580Y-71151429D01*
X64542580Y-71151429D02*
X64399723Y-71056191D01*
X64399723Y-71056191D02*
X64304485Y-70960953D01*
X64304485Y-70960953D02*
X64256866Y-70865715D01*
X123546667Y-106722580D02*
X123880000Y-107198771D01*
X124118095Y-106722580D02*
X124118095Y-107722580D01*
X124118095Y-107722580D02*
X123737143Y-107722580D01*
X123737143Y-107722580D02*
X123641905Y-107674961D01*
X123641905Y-107674961D02*
X123594286Y-107627342D01*
X123594286Y-107627342D02*
X123546667Y-107532104D01*
X123546667Y-107532104D02*
X123546667Y-107389247D01*
X123546667Y-107389247D02*
X123594286Y-107294009D01*
X123594286Y-107294009D02*
X123641905Y-107246390D01*
X123641905Y-107246390D02*
X123737143Y-107198771D01*
X123737143Y-107198771D02*
X124118095Y-107198771D01*
X122737143Y-106770200D02*
X122832381Y-106722580D01*
X122832381Y-106722580D02*
X123022857Y-106722580D01*
X123022857Y-106722580D02*
X123118095Y-106770200D01*
X123118095Y-106770200D02*
X123165714Y-106865438D01*
X123165714Y-106865438D02*
X123165714Y-107246390D01*
X123165714Y-107246390D02*
X123118095Y-107341628D01*
X123118095Y-107341628D02*
X123022857Y-107389247D01*
X123022857Y-107389247D02*
X122832381Y-107389247D01*
X122832381Y-107389247D02*
X122737143Y-107341628D01*
X122737143Y-107341628D02*
X122689524Y-107246390D01*
X122689524Y-107246390D02*
X122689524Y-107151152D01*
X122689524Y-107151152D02*
X123165714Y-107055914D01*
X121832381Y-107389247D02*
X121832381Y-106579723D01*
X121832381Y-106579723D02*
X121880000Y-106484485D01*
X121880000Y-106484485D02*
X121927619Y-106436866D01*
X121927619Y-106436866D02*
X122022857Y-106389247D01*
X122022857Y-106389247D02*
X122165714Y-106389247D01*
X122165714Y-106389247D02*
X122260952Y-106436866D01*
X121832381Y-106770200D02*
X121927619Y-106722580D01*
X121927619Y-106722580D02*
X122118095Y-106722580D01*
X122118095Y-106722580D02*
X122213333Y-106770200D01*
X122213333Y-106770200D02*
X122260952Y-106817819D01*
X122260952Y-106817819D02*
X122308571Y-106913057D01*
X122308571Y-106913057D02*
X122308571Y-107198771D01*
X122308571Y-107198771D02*
X122260952Y-107294009D01*
X122260952Y-107294009D02*
X122213333Y-107341628D01*
X122213333Y-107341628D02*
X122118095Y-107389247D01*
X122118095Y-107389247D02*
X121927619Y-107389247D01*
X121927619Y-107389247D02*
X121832381Y-107341628D01*
X120927619Y-107389247D02*
X120927619Y-106722580D01*
X121356190Y-107389247D02*
X121356190Y-106865438D01*
X121356190Y-106865438D02*
X121308571Y-106770200D01*
X121308571Y-106770200D02*
X121213333Y-106722580D01*
X121213333Y-106722580D02*
X121070476Y-106722580D01*
X121070476Y-106722580D02*
X120975238Y-106770200D01*
X120975238Y-106770200D02*
X120927619Y-106817819D01*
X120308571Y-106722580D02*
X120403809Y-106770200D01*
X120403809Y-106770200D02*
X120451428Y-106865438D01*
X120451428Y-106865438D02*
X120451428Y-107722580D01*
X119499047Y-106722580D02*
X119499047Y-107246390D01*
X119499047Y-107246390D02*
X119546666Y-107341628D01*
X119546666Y-107341628D02*
X119641904Y-107389247D01*
X119641904Y-107389247D02*
X119832380Y-107389247D01*
X119832380Y-107389247D02*
X119927618Y-107341628D01*
X119499047Y-106770200D02*
X119594285Y-106722580D01*
X119594285Y-106722580D02*
X119832380Y-106722580D01*
X119832380Y-106722580D02*
X119927618Y-106770200D01*
X119927618Y-106770200D02*
X119975237Y-106865438D01*
X119975237Y-106865438D02*
X119975237Y-106960676D01*
X119975237Y-106960676D02*
X119927618Y-107055914D01*
X119927618Y-107055914D02*
X119832380Y-107103533D01*
X119832380Y-107103533D02*
X119594285Y-107103533D01*
X119594285Y-107103533D02*
X119499047Y-107151152D01*
X119165713Y-107389247D02*
X118784761Y-107389247D01*
X119022856Y-107722580D02*
X119022856Y-106865438D01*
X119022856Y-106865438D02*
X118975237Y-106770200D01*
X118975237Y-106770200D02*
X118879999Y-106722580D01*
X118879999Y-106722580D02*
X118784761Y-106722580D01*
X118308570Y-106722580D02*
X118403808Y-106770200D01*
X118403808Y-106770200D02*
X118451427Y-106817819D01*
X118451427Y-106817819D02*
X118499046Y-106913057D01*
X118499046Y-106913057D02*
X118499046Y-107198771D01*
X118499046Y-107198771D02*
X118451427Y-107294009D01*
X118451427Y-107294009D02*
X118403808Y-107341628D01*
X118403808Y-107341628D02*
X118308570Y-107389247D01*
X118308570Y-107389247D02*
X118165713Y-107389247D01*
X118165713Y-107389247D02*
X118070475Y-107341628D01*
X118070475Y-107341628D02*
X118022856Y-107294009D01*
X118022856Y-107294009D02*
X117975237Y-107198771D01*
X117975237Y-107198771D02*
X117975237Y-106913057D01*
X117975237Y-106913057D02*
X118022856Y-106817819D01*
X118022856Y-106817819D02*
X118070475Y-106770200D01*
X118070475Y-106770200D02*
X118165713Y-106722580D01*
X118165713Y-106722580D02*
X118308570Y-106722580D01*
X117546665Y-106722580D02*
X117546665Y-107389247D01*
X117546665Y-107198771D02*
X117499046Y-107294009D01*
X117499046Y-107294009D02*
X117451427Y-107341628D01*
X117451427Y-107341628D02*
X117356189Y-107389247D01*
X117356189Y-107389247D02*
X117260951Y-107389247D01*
X117022855Y-107722580D02*
X116403808Y-107722580D01*
X116403808Y-107722580D02*
X116737141Y-107341628D01*
X116737141Y-107341628D02*
X116594284Y-107341628D01*
X116594284Y-107341628D02*
X116499046Y-107294009D01*
X116499046Y-107294009D02*
X116451427Y-107246390D01*
X116451427Y-107246390D02*
X116403808Y-107151152D01*
X116403808Y-107151152D02*
X116403808Y-106913057D01*
X116403808Y-106913057D02*
X116451427Y-106817819D01*
X116451427Y-106817819D02*
X116499046Y-106770200D01*
X116499046Y-106770200D02*
X116594284Y-106722580D01*
X116594284Y-106722580D02*
X116879998Y-106722580D01*
X116879998Y-106722580D02*
X116975236Y-106770200D01*
X116975236Y-106770200D02*
X117022855Y-106817819D01*
X116118093Y-107722580D02*
X115784760Y-106722580D01*
X115784760Y-106722580D02*
X115451427Y-107722580D01*
X115213331Y-107722580D02*
X114594284Y-107722580D01*
X114594284Y-107722580D02*
X114927617Y-107341628D01*
X114927617Y-107341628D02*
X114784760Y-107341628D01*
X114784760Y-107341628D02*
X114689522Y-107294009D01*
X114689522Y-107294009D02*
X114641903Y-107246390D01*
X114641903Y-107246390D02*
X114594284Y-107151152D01*
X114594284Y-107151152D02*
X114594284Y-106913057D01*
X114594284Y-106913057D02*
X114641903Y-106817819D01*
X114641903Y-106817819D02*
X114689522Y-106770200D01*
X114689522Y-106770200D02*
X114784760Y-106722580D01*
X114784760Y-106722580D02*
X115070474Y-106722580D01*
X115070474Y-106722580D02*
X115165712Y-106770200D01*
X115165712Y-106770200D02*
X115213331Y-106817819D01*
X82946666Y-81846390D02*
X82613333Y-81846390D01*
X82470476Y-81322580D02*
X82946666Y-81322580D01*
X82946666Y-81322580D02*
X82946666Y-82322580D01*
X82946666Y-82322580D02*
X82470476Y-82322580D01*
X82089523Y-81370200D02*
X81946666Y-81322580D01*
X81946666Y-81322580D02*
X81708571Y-81322580D01*
X81708571Y-81322580D02*
X81613333Y-81370200D01*
X81613333Y-81370200D02*
X81565714Y-81417819D01*
X81565714Y-81417819D02*
X81518095Y-81513057D01*
X81518095Y-81513057D02*
X81518095Y-81608295D01*
X81518095Y-81608295D02*
X81565714Y-81703533D01*
X81565714Y-81703533D02*
X81613333Y-81751152D01*
X81613333Y-81751152D02*
X81708571Y-81798771D01*
X81708571Y-81798771D02*
X81899047Y-81846390D01*
X81899047Y-81846390D02*
X81994285Y-81894009D01*
X81994285Y-81894009D02*
X82041904Y-81941628D01*
X82041904Y-81941628D02*
X82089523Y-82036866D01*
X82089523Y-82036866D02*
X82089523Y-82132104D01*
X82089523Y-82132104D02*
X82041904Y-82227342D01*
X82041904Y-82227342D02*
X81994285Y-82274961D01*
X81994285Y-82274961D02*
X81899047Y-82322580D01*
X81899047Y-82322580D02*
X81660952Y-82322580D01*
X81660952Y-82322580D02*
X81518095Y-82274961D01*
X81089523Y-81322580D02*
X81089523Y-82322580D01*
X81089523Y-82322580D02*
X80708571Y-82322580D01*
X80708571Y-82322580D02*
X80613333Y-82274961D01*
X80613333Y-82274961D02*
X80565714Y-82227342D01*
X80565714Y-82227342D02*
X80518095Y-82132104D01*
X80518095Y-82132104D02*
X80518095Y-81989247D01*
X80518095Y-81989247D02*
X80565714Y-81894009D01*
X80565714Y-81894009D02*
X80613333Y-81846390D01*
X80613333Y-81846390D02*
X80708571Y-81798771D01*
X80708571Y-81798771D02*
X81089523Y-81798771D01*
X79565714Y-81322580D02*
X80137142Y-81322580D01*
X79851428Y-81322580D02*
X79851428Y-82322580D01*
X79851428Y-82322580D02*
X79946666Y-82179723D01*
X79946666Y-82179723D02*
X80041904Y-82084485D01*
X80041904Y-82084485D02*
X80137142Y-82036866D01*
X116842580Y-74326667D02*
X117842580Y-74326667D01*
X117842580Y-74326667D02*
X117128295Y-74660000D01*
X117128295Y-74660000D02*
X117842580Y-74993333D01*
X117842580Y-74993333D02*
X116842580Y-74993333D01*
X116842580Y-75469524D02*
X117842580Y-75469524D01*
X117842580Y-75469524D02*
X117842580Y-75850476D01*
X117842580Y-75850476D02*
X117794961Y-75945714D01*
X117794961Y-75945714D02*
X117747342Y-75993333D01*
X117747342Y-75993333D02*
X117652104Y-76040952D01*
X117652104Y-76040952D02*
X117509247Y-76040952D01*
X117509247Y-76040952D02*
X117414009Y-75993333D01*
X117414009Y-75993333D02*
X117366390Y-75945714D01*
X117366390Y-75945714D02*
X117318771Y-75850476D01*
X117318771Y-75850476D02*
X117318771Y-75469524D01*
X117842580Y-76469524D02*
X117033057Y-76469524D01*
X117033057Y-76469524D02*
X116937819Y-76517143D01*
X116937819Y-76517143D02*
X116890200Y-76564762D01*
X116890200Y-76564762D02*
X116842580Y-76660000D01*
X116842580Y-76660000D02*
X116842580Y-76850476D01*
X116842580Y-76850476D02*
X116890200Y-76945714D01*
X116890200Y-76945714D02*
X116937819Y-76993333D01*
X116937819Y-76993333D02*
X117033057Y-77040952D01*
X117033057Y-77040952D02*
X117842580Y-77040952D01*
X116842580Y-78040952D02*
X116842580Y-77469524D01*
X116842580Y-77755238D02*
X117842580Y-77755238D01*
X117842580Y-77755238D02*
X117699723Y-77660000D01*
X117699723Y-77660000D02*
X117604485Y-77564762D01*
X117604485Y-77564762D02*
X117556866Y-77469524D01*
X131513609Y-76207619D02*
X131561228Y-76064762D01*
X131561228Y-76064762D02*
X131608847Y-76017143D01*
X131608847Y-76017143D02*
X131704085Y-75969524D01*
X131704085Y-75969524D02*
X131846942Y-75969524D01*
X131846942Y-75969524D02*
X131942180Y-76017143D01*
X131942180Y-76017143D02*
X131989800Y-76064762D01*
X131989800Y-76064762D02*
X132037419Y-76160000D01*
X132037419Y-76160000D02*
X132037419Y-76540952D01*
X132037419Y-76540952D02*
X131037419Y-76540952D01*
X131037419Y-76540952D02*
X131037419Y-76207619D01*
X131037419Y-76207619D02*
X131085038Y-76112381D01*
X131085038Y-76112381D02*
X131132657Y-76064762D01*
X131132657Y-76064762D02*
X131227895Y-76017143D01*
X131227895Y-76017143D02*
X131323133Y-76017143D01*
X131323133Y-76017143D02*
X131418371Y-76064762D01*
X131418371Y-76064762D02*
X131465990Y-76112381D01*
X131465990Y-76112381D02*
X131513609Y-76207619D01*
X131513609Y-76207619D02*
X131513609Y-76540952D01*
X132037419Y-75112381D02*
X131513609Y-75112381D01*
X131513609Y-75112381D02*
X131418371Y-75160000D01*
X131418371Y-75160000D02*
X131370752Y-75255238D01*
X131370752Y-75255238D02*
X131370752Y-75445714D01*
X131370752Y-75445714D02*
X131418371Y-75540952D01*
X131989800Y-75112381D02*
X132037419Y-75207619D01*
X132037419Y-75207619D02*
X132037419Y-75445714D01*
X132037419Y-75445714D02*
X131989800Y-75540952D01*
X131989800Y-75540952D02*
X131894561Y-75588571D01*
X131894561Y-75588571D02*
X131799323Y-75588571D01*
X131799323Y-75588571D02*
X131704085Y-75540952D01*
X131704085Y-75540952D02*
X131656466Y-75445714D01*
X131656466Y-75445714D02*
X131656466Y-75207619D01*
X131656466Y-75207619D02*
X131608847Y-75112381D01*
X131370752Y-74779047D02*
X131370752Y-74398095D01*
X131037419Y-74636190D02*
X131894561Y-74636190D01*
X131894561Y-74636190D02*
X131989800Y-74588571D01*
X131989800Y-74588571D02*
X132037419Y-74493333D01*
X132037419Y-74493333D02*
X132037419Y-74398095D01*
X131370752Y-74207618D02*
X131370752Y-73826666D01*
X131037419Y-74064761D02*
X131894561Y-74064761D01*
X131894561Y-74064761D02*
X131989800Y-74017142D01*
X131989800Y-74017142D02*
X132037419Y-73921904D01*
X132037419Y-73921904D02*
X132037419Y-73826666D01*
X131989800Y-73112380D02*
X132037419Y-73207618D01*
X132037419Y-73207618D02*
X132037419Y-73398094D01*
X132037419Y-73398094D02*
X131989800Y-73493332D01*
X131989800Y-73493332D02*
X131894561Y-73540951D01*
X131894561Y-73540951D02*
X131513609Y-73540951D01*
X131513609Y-73540951D02*
X131418371Y-73493332D01*
X131418371Y-73493332D02*
X131370752Y-73398094D01*
X131370752Y-73398094D02*
X131370752Y-73207618D01*
X131370752Y-73207618D02*
X131418371Y-73112380D01*
X131418371Y-73112380D02*
X131513609Y-73064761D01*
X131513609Y-73064761D02*
X131608847Y-73064761D01*
X131608847Y-73064761D02*
X131704085Y-73540951D01*
X132037419Y-72636189D02*
X131370752Y-72636189D01*
X131561228Y-72636189D02*
X131465990Y-72588570D01*
X131465990Y-72588570D02*
X131418371Y-72540951D01*
X131418371Y-72540951D02*
X131370752Y-72445713D01*
X131370752Y-72445713D02*
X131370752Y-72350475D01*
X131370752Y-72112379D02*
X132037419Y-71874284D01*
X131370752Y-71636189D02*
X132037419Y-71874284D01*
X132037419Y-71874284D02*
X132275514Y-71969522D01*
X132275514Y-71969522D02*
X132323133Y-72017141D01*
X132323133Y-72017141D02*
X132370752Y-72112379D01*
X132037419Y-70731427D02*
X132037419Y-71302855D01*
X132037419Y-71017141D02*
X131037419Y-71017141D01*
X131037419Y-71017141D02*
X131180276Y-71112379D01*
X131180276Y-71112379D02*
X131275514Y-71207617D01*
X131275514Y-71207617D02*
X131323133Y-71302855D01*
D12*
%TO.C,R1*%
X132080000Y-92940000D02*
X132080000Y-92170000D01*
X130710000Y-92170000D02*
X133450000Y-92170000D01*
X133450000Y-92170000D02*
X133450000Y-85630000D01*
X130710000Y-85630000D02*
X130710000Y-92170000D01*
X133450000Y-85630000D02*
X130710000Y-85630000D01*
X132080000Y-84860000D02*
X132080000Y-85630000D01*
%TO.C,R2*%
X124460000Y-84860000D02*
X124460000Y-85630000D01*
X125830000Y-85630000D02*
X123090000Y-85630000D01*
X123090000Y-85630000D02*
X123090000Y-92170000D01*
X125830000Y-92170000D02*
X125830000Y-85630000D01*
X123090000Y-92170000D02*
X125830000Y-92170000D01*
X124460000Y-92940000D02*
X124460000Y-92170000D01*
%TD*%
M02*
