%TF.GenerationSoftware,KiCad,Pcbnew,7.0.8*%
%TF.CreationDate,2025-10-26T01:44:15+02:00*%
%TF.ProjectId,Gyroskopicky-ovladac,4779726f-736b-46f7-9069-636b792d6f76,rev?*%
%TF.SameCoordinates,Original*%
%TF.FileFunction,Soldermask,Top*%
%TF.FilePolarity,Negative*%
%FSLAX46Y46*%
G04 Gerber Fmt 4.6, Leading zero omitted, Abs format (unit mm)*
G04 Created by KiCad (PCBNEW 7.0.8) date 2025-10-26 01:44:15*
%MOMM*%
%LPD*%
G01*
G04 APERTURE LIST*
%ADD10C,2.000000*%
%ADD11C,1.600000*%
%ADD12O,1.600000X1.600000*%
%ADD13C,1.524000*%
G04 APERTURE END LIST*
D10*
%TO.C,OLED1*%
X78740000Y-58420000D03*
X83820000Y-58420000D03*
X88900000Y-58420000D03*
X93980000Y-58420000D03*
%TD*%
D11*
%TO.C,R1*%
X132080000Y-93980000D03*
D12*
X132080000Y-83820000D03*
%TD*%
D13*
%TO.C,Menu1*%
X63500000Y-78740000D03*
X63500000Y-83820000D03*
%TD*%
%TO.C,Switch1*%
X127000000Y-63500000D03*
X132080000Y-63500000D03*
%TD*%
D11*
%TO.C,R2*%
X124460000Y-83820000D03*
D12*
X124460000Y-93980000D03*
%TD*%
D13*
%TO.C,Reboot1*%
X63500000Y-66040000D03*
X63500000Y-71120000D03*
%TD*%
%TO.C,Regulator3V3*%
X129540000Y-111760000D03*
X129540000Y-101600000D03*
X109220000Y-111760000D03*
X109220000Y-101600000D03*
%TD*%
%TO.C,ESP1*%
X99060000Y-104140000D03*
X99060000Y-101600000D03*
X99060000Y-99060000D03*
X99060000Y-96520000D03*
X99060000Y-93980000D03*
X99060000Y-91440000D03*
X99060000Y-88900000D03*
X99060000Y-86360000D03*
X99060000Y-83820000D03*
X99060000Y-81280000D03*
X99060000Y-78740000D03*
X99060000Y-76200000D03*
X99060000Y-73660000D03*
X99060000Y-71120000D03*
X99060000Y-68580000D03*
X73660000Y-104140000D03*
X73660000Y-101600000D03*
X73660000Y-99060000D03*
X73660000Y-96520000D03*
X73660000Y-93980000D03*
X73660000Y-91440000D03*
X73660000Y-88900000D03*
X73660000Y-86360000D03*
X73660000Y-83820000D03*
X73660000Y-81280000D03*
X73660000Y-78740000D03*
X73660000Y-76200000D03*
X73660000Y-73660000D03*
X73660000Y-71120000D03*
X73660000Y-68580000D03*
%TD*%
%TO.C,MPU1*%
X109220000Y-66040000D03*
X109220000Y-68580000D03*
X109220000Y-71120000D03*
X109220000Y-73660000D03*
X109220000Y-76200000D03*
X109220000Y-78740000D03*
X109220000Y-81280000D03*
X109220000Y-83820000D03*
%TD*%
%TO.C,Battery1*%
X132080000Y-76200000D03*
X132080000Y-71120000D03*
%TD*%
M02*
