%TF.GenerationSoftware,KiCad,Pcbnew,7.0.8*%
%TF.CreationDate,2025-10-26T01:44:15+02:00*%
%TF.ProjectId,Gyroskopicky-ovladac,4779726f-736b-46f7-9069-636b792d6f76,rev?*%
%TF.SameCoordinates,Original*%
%TF.FileFunction,Copper,L1,Top*%
%TF.FilePolarity,Positive*%
%FSLAX46Y46*%
G04 Gerber Fmt 4.6, Leading zero omitted, Abs format (unit mm)*
G04 Created by KiCad (PCBNEW 7.0.8) date 2025-10-26 01:44:15*
%MOMM*%
%LPD*%
G01*
G04 APERTURE LIST*
%TA.AperFunction,ComponentPad*%
%ADD10C,2.000000*%
%TD*%
%TA.AperFunction,ComponentPad*%
%ADD11C,1.600000*%
%TD*%
%TA.AperFunction,ComponentPad*%
%ADD12O,1.600000X1.600000*%
%TD*%
%TA.AperFunction,ComponentPad*%
%ADD13C,1.524000*%
%TD*%
%TA.AperFunction,ViaPad*%
%ADD14C,0.800000*%
%TD*%
%TA.AperFunction,Conductor*%
%ADD15C,0.500000*%
%TD*%
G04 APERTURE END LIST*
D10*
%TO.P,OLED1,1,Pin_1*%
%TO.N,SDA*%
X78740000Y-58420000D03*
%TO.P,OLED1,2,Pin_2*%
%TO.N,SCL*%
X83820000Y-58420000D03*
%TO.P,OLED1,3,Pin_3*%
%TO.N,VCC3V3*%
X88900000Y-58420000D03*
%TO.P,OLED1,4,Pin_4*%
%TO.N,GND*%
X93980000Y-58420000D03*
%TD*%
D11*
%TO.P,R1,1*%
%TO.N,D34*%
X132080000Y-93980000D03*
D12*
%TO.P,R1,2*%
%TO.N,GND*%
X132080000Y-83820000D03*
%TD*%
D13*
%TO.P,Menu1,1,Pin_1*%
%TO.N,GND*%
X63500000Y-78740000D03*
%TO.P,Menu1,2,Pin_2*%
%TO.N,D23*%
X63500000Y-83820000D03*
%TD*%
%TO.P,Switch1,1,Pin_1*%
%TO.N,STRI*%
X127000000Y-63500000D03*
%TO.P,Switch1,2,Pin_2*%
%TO.N,BTSI*%
X132080000Y-63500000D03*
%TD*%
D11*
%TO.P,R2,1*%
%TO.N,STRI*%
X124460000Y-83820000D03*
D12*
%TO.P,R2,2*%
%TO.N,D34*%
X124460000Y-93980000D03*
%TD*%
D13*
%TO.P,Reboot1,1,Pin_1*%
%TO.N,GND*%
X63500000Y-66040000D03*
%TO.P,Reboot1,2,Pin_2*%
%TO.N,EN*%
X63500000Y-71120000D03*
%TD*%
%TO.P,Regulator3V3,1,IN-*%
%TO.N,GND*%
X129540000Y-111760000D03*
%TO.P,Regulator3V3,2,IN+*%
%TO.N,STRI*%
X129540000Y-101600000D03*
%TO.P,Regulator3V3,3,OUT-*%
%TO.N,GND*%
X109220000Y-111760000D03*
%TO.P,Regulator3V3,4,OUT+*%
%TO.N,VCC3V3*%
X109220000Y-101600000D03*
%TD*%
%TO.P,ESP1,1,3v3*%
%TO.N,VCC3V3*%
X99060000Y-104140000D03*
%TO.P,ESP1,2,GND*%
%TO.N,GND*%
X99060000Y-101600000D03*
%TO.P,ESP1,3,GPIO15*%
%TO.N,unconnected-(ESP1-GPIO15-Pad3)*%
X99060000Y-99060000D03*
%TO.P,ESP1,4,GPIO2*%
%TO.N,unconnected-(ESP1-GPIO2-Pad4)*%
X99060000Y-96520000D03*
%TO.P,ESP1,5,GPIO4*%
%TO.N,unconnected-(ESP1-GPIO4-Pad5)*%
X99060000Y-93980000D03*
%TO.P,ESP1,6,GPIO16*%
%TO.N,unconnected-(ESP1-GPIO16-Pad6)*%
X99060000Y-91440000D03*
%TO.P,ESP1,7,GPIO17*%
%TO.N,unconnected-(ESP1-GPIO17-Pad7)*%
X99060000Y-88900000D03*
%TO.P,ESP1,8,GPIO5*%
%TO.N,unconnected-(ESP1-GPIO5-Pad8)*%
X99060000Y-86360000D03*
%TO.P,ESP1,9,GPIO18*%
%TO.N,unconnected-(ESP1-GPIO18-Pad9)*%
X99060000Y-83820000D03*
%TO.P,ESP1,10,GPIO19*%
%TO.N,unconnected-(ESP1-GPIO19-Pad10)*%
X99060000Y-81280000D03*
%TO.P,ESP1,11,GPIO21*%
%TO.N,SDA*%
X99060000Y-78740000D03*
%TO.P,ESP1,12,RX0*%
%TO.N,unconnected-(ESP1-RX0-Pad12)*%
X99060000Y-76200000D03*
%TO.P,ESP1,13,TX0*%
%TO.N,unconnected-(ESP1-TX0-Pad13)*%
X99060000Y-73660000D03*
%TO.P,ESP1,14,GPIO22*%
%TO.N,SCL*%
X99060000Y-71120000D03*
%TO.P,ESP1,15,GPIO23*%
%TO.N,D23*%
X99060000Y-68580000D03*
%TO.P,ESP1,16,VN*%
%TO.N,unconnected-(ESP1-VN-Pad16)*%
X73660000Y-104140000D03*
%TO.P,ESP1,17,GND*%
%TO.N,unconnected-(ESP1-GND-Pad17)*%
X73660000Y-101600000D03*
%TO.P,ESP1,18,GPIO13*%
%TO.N,unconnected-(ESP1-GPIO13-Pad18)*%
X73660000Y-99060000D03*
%TO.P,ESP1,19,GPIO12*%
%TO.N,unconnected-(ESP1-GPIO12-Pad19)*%
X73660000Y-96520000D03*
%TO.P,ESP1,20,GPIO14*%
%TO.N,unconnected-(ESP1-GPIO14-Pad20)*%
X73660000Y-93980000D03*
%TO.P,ESP1,21,GPIO27*%
%TO.N,unconnected-(ESP1-GPIO27-Pad21)*%
X73660000Y-91440000D03*
%TO.P,ESP1,22,GPIO26*%
%TO.N,unconnected-(ESP1-GPIO26-Pad22)*%
X73660000Y-88900000D03*
%TO.P,ESP1,23,GPIO25*%
%TO.N,unconnected-(ESP1-GPIO25-Pad23)*%
X73660000Y-86360000D03*
%TO.P,ESP1,24,GPIO33*%
%TO.N,unconnected-(ESP1-GPIO33-Pad24)*%
X73660000Y-83820000D03*
%TO.P,ESP1,25,GPIO32*%
%TO.N,unconnected-(ESP1-GPIO32-Pad25)*%
X73660000Y-81280000D03*
%TO.P,ESP1,26,GPIO35*%
%TO.N,unconnected-(ESP1-GPIO35-Pad26)*%
X73660000Y-78740000D03*
%TO.P,ESP1,27,GPIO34*%
%TO.N,D34*%
X73660000Y-76200000D03*
%TO.P,ESP1,28,VN*%
%TO.N,unconnected-(ESP1-VN-Pad28)*%
X73660000Y-73660000D03*
%TO.P,ESP1,29,VP*%
%TO.N,unconnected-(ESP1-VP-Pad29)*%
X73660000Y-71120000D03*
%TO.P,ESP1,30,EN*%
%TO.N,EN*%
X73660000Y-68580000D03*
%TD*%
%TO.P,MPU1,1,VCC*%
%TO.N,VCC3V3*%
X109220000Y-66040000D03*
%TO.P,MPU1,2,GND*%
%TO.N,GND*%
X109220000Y-68580000D03*
%TO.P,MPU1,3,SCL*%
%TO.N,SCL*%
X109220000Y-71120000D03*
%TO.P,MPU1,4,SDA*%
%TO.N,SDA*%
X109220000Y-73660000D03*
%TO.P,MPU1,5,XDA*%
%TO.N,unconnected-(MPU1-XDA-Pad5)*%
X109220000Y-76200000D03*
%TO.P,MPU1,6,XCL*%
%TO.N,unconnected-(MPU1-XCL-Pad6)*%
X109220000Y-78740000D03*
%TO.P,MPU1,7,ADD*%
%TO.N,unconnected-(MPU1-ADD-Pad7)*%
X109220000Y-81280000D03*
%TO.P,MPU1,8,INT*%
%TO.N,unconnected-(MPU1-INT-Pad8)*%
X109220000Y-83820000D03*
%TD*%
%TO.P,Battery1,1,Pin_1*%
%TO.N,GND*%
X132080000Y-76200000D03*
%TO.P,Battery1,2,Pin_2*%
%TO.N,BTSI*%
X132080000Y-71120000D03*
%TD*%
D14*
%TO.N,GND*%
X127000000Y-96520000D03*
X81280000Y-66040000D03*
X132080000Y-88900000D03*
X68580000Y-73660000D03*
X104140000Y-101600000D03*
X68580000Y-63500000D03*
X104140000Y-111760000D03*
X96520000Y-60960000D03*
%TO.N,D23*%
X91440000Y-109220000D03*
X104140000Y-68580000D03*
%TO.N,STRI*%
X124460000Y-73660000D03*
X129540000Y-96520000D03*
X124460000Y-78740000D03*
X129540000Y-91440000D03*
%TD*%
D15*
%TO.N,GND*%
X111760000Y-68580000D02*
X109220000Y-68580000D01*
X99060000Y-101600000D02*
X104140000Y-101600000D01*
X63500000Y-78740000D02*
X68580000Y-78740000D01*
X66040000Y-66040000D02*
X81280000Y-66040000D01*
X68580000Y-63500000D02*
X66040000Y-63500000D01*
X111760000Y-58420000D02*
X111760000Y-68580000D01*
X132080000Y-76200000D02*
X119380000Y-76200000D01*
X93980000Y-58420000D02*
X96520000Y-58420000D01*
X127000000Y-111760000D02*
X129540000Y-111760000D01*
X96520000Y-60960000D02*
X96520000Y-58420000D01*
X68580000Y-78740000D02*
X68580000Y-73660000D01*
X127000000Y-96520000D02*
X127000000Y-111760000D01*
X109220000Y-111760000D02*
X127000000Y-111760000D01*
X132080000Y-83820000D02*
X132080000Y-88900000D01*
X119380000Y-76200000D02*
X111760000Y-68580000D01*
X132080000Y-83820000D02*
X132080000Y-76200000D01*
X104140000Y-111760000D02*
X109220000Y-111760000D01*
X96520000Y-58420000D02*
X111760000Y-58420000D01*
X66040000Y-63500000D02*
X66040000Y-66040000D01*
X63500000Y-66040000D02*
X66040000Y-66040000D01*
%TO.N,BTSI*%
X132080000Y-71120000D02*
X132080000Y-63500000D01*
%TO.N,VCC3V3*%
X88900000Y-58420000D02*
X96520000Y-66040000D01*
X96520000Y-66040000D02*
X109220000Y-66040000D01*
X109220000Y-104140000D02*
X99060000Y-104140000D01*
X109220000Y-101600000D02*
X109220000Y-104140000D01*
%TO.N,SDA*%
X78740000Y-58420000D02*
X88900000Y-68580000D01*
X88900000Y-68580000D02*
X88900000Y-78740000D01*
X101600000Y-78740000D02*
X106680000Y-73660000D01*
X106680000Y-73660000D02*
X109220000Y-73660000D01*
X99060000Y-78740000D02*
X101600000Y-78740000D01*
X88900000Y-78740000D02*
X99060000Y-78740000D01*
%TO.N,SCL*%
X99060000Y-71120000D02*
X96520000Y-71120000D01*
X109220000Y-71120000D02*
X99060000Y-71120000D01*
X96520000Y-71120000D02*
X83820000Y-58420000D01*
%TO.N,D23*%
X63500000Y-83820000D02*
X63500000Y-99060000D01*
X73660000Y-109220000D02*
X91440000Y-109220000D01*
X63500000Y-99060000D02*
X73660000Y-109220000D01*
X104140000Y-68580000D02*
X99060000Y-68580000D01*
%TO.N,D34*%
X78740000Y-76200000D02*
X73660000Y-76200000D01*
X124460000Y-93980000D02*
X111760000Y-106680000D01*
X124460000Y-93980000D02*
X132080000Y-93980000D01*
X78740000Y-106680000D02*
X78740000Y-76200000D01*
X111760000Y-106680000D02*
X78740000Y-106680000D01*
%TO.N,EN*%
X66040000Y-71120000D02*
X68580000Y-68580000D01*
X68580000Y-68580000D02*
X73660000Y-68580000D01*
X63500000Y-71120000D02*
X66040000Y-71120000D01*
%TO.N,STRI*%
X129540000Y-83820000D02*
X129540000Y-91440000D01*
X124460000Y-83820000D02*
X124460000Y-78740000D01*
X129540000Y-96520000D02*
X129540000Y-101600000D01*
X124460000Y-63500000D02*
X127000000Y-63500000D01*
X124460000Y-83820000D02*
X129540000Y-83820000D01*
X124460000Y-73660000D02*
X124460000Y-63500000D01*
%TD*%
M02*
